<svg width="38" height="38" viewBox="0 0 38 38" fill="none" xmlns="http://www.w3.org/2000/svg">
<circle cx="19" cy="19" r="19" fill="#EEF1F0"/>
<path d="M22.75 33.125H19.9375V31.25H22.75C26.0499 31.25 28.7894 28.7383 29.2457 25.5625C29.2897 25.2563 31.1875 23.6875 31.1875 23.6875V24.625C31.1875 29.2777 27.4027 33.125 22.75 33.125Z" fill="#4D3535"/>
<path d="M6.8125 18.0627V17.1252C6.8125 13.7551 8.23156 10.5023 10.7071 8.20063L11.3929 7.5625L12.6701 8.93581L11.9834 9.57394C10.1194 11.3076 8.96294 13.6778 8.73081 16.1877C8.70206 16.4984 6.8125 18.0627 6.8125 18.0627Z" fill="#665151"/>
<path d="M31.1895 18.0627C31.1895 18.0627 29.3 16.4984 29.2712 16.1877C29.0391 13.6778 27.8827 11.3076 26.0187 9.57394L25.332 8.93581L26.6092 7.5625L27.295 8.20063C29.7705 10.5023 31.1895 13.7551 31.1895 17.1252V18.0627Z" fill="#4D3535"/>
<path d="M8.73081 25.5625H5.8125C4.26163 25.5625 3 24.3009 3 22.75V19C3 17.4491 4.26163 16.1875 5.8125 16.1875H8.73081V25.5625Z" fill="#66CCFF"/>
<path d="M32.1879 25.5625H29.2461L29.2696 16.1875H32.1879C33.7388 16.1875 35.0004 17.4491 35.0004 19V22.75C35.0004 24.3009 33.7388 25.5625 32.1879 25.5625Z" fill="#59ABFF"/>
<path d="M19 35C17.4491 35 16.1875 33.7384 16.1875 32.1875C16.1875 30.6366 17.4491 29.375 19 29.375C20.5509 29.375 21.8125 30.6366 21.8125 32.1875C21.8125 33.7384 20.5509 35 19 35Z" fill="#665151"/>
<path d="M9.06131 8.51175L8.39844 7.84887L9.06125 7.18606C11.72 4.52737 15.2502 3 19.0002 3C22.7502 3 26.2805 4.52737 28.9392 7.18606L29.602 7.84887L28.9392 8.51169C27.2967 10.1532 24.7909 10.5689 22.7054 9.54531C20.3872 8.40637 17.6132 8.40637 15.2951 9.54531C13.2151 10.5666 10.7073 10.1592 9.06131 8.51175Z" fill="#66CCFF"/>
<path d="M21.8125 32.1875C21.8125 30.6366 20.5509 29.375 19 29.375V35C20.5509 35 21.8125 33.7384 21.8125 32.1875Z" fill="#4D3535"/>
<path d="M22.7051 9.54538C24.7907 10.5689 27.2965 10.1533 28.9389 8.51175L29.6017 7.84894L28.9389 7.18613C26.2803 4.52737 22.75 3 19 3V8.69119C20.2731 8.69119 21.5461 8.97588 22.7051 9.54538Z" fill="#59ABFF"/>
<path fill-rule="evenodd" clip-rule="evenodd" d="M20.405 12.05C19.992 10.65 18.008 10.65 17.595 12.05L17.495 12.39C17.4333 12.5996 17.3255 12.7927 17.1794 12.9552C17.0333 13.1177 16.8528 13.2454 16.6509 13.3291C16.449 13.4127 16.231 13.4501 16.0128 13.4385C15.7947 13.4269 15.5818 13.3666 15.39 13.262L15.08 13.092C13.797 12.394 12.394 13.797 13.093 15.079L13.262 15.39C13.708 16.21 13.285 17.231 12.39 17.495L12.05 17.595C10.65 18.008 10.65 19.992 12.05 20.405L12.39 20.505C12.5996 20.5667 12.7927 20.6745 12.9552 20.8206C13.1177 20.9667 13.2454 21.1472 13.3291 21.3491C13.4127 21.551 13.4501 21.769 13.4385 21.9872C13.4269 22.2053 13.3666 22.4182 13.262 22.61L13.092 22.92C12.394 24.203 13.797 25.606 15.079 24.907L15.39 24.738C15.5818 24.6334 15.7947 24.5731 16.0128 24.5615C16.231 24.5499 16.449 24.5873 16.6509 24.6709C16.8528 24.7546 17.0333 24.8823 17.1794 25.0448C17.3255 25.2073 17.4333 25.4004 17.495 25.61L17.595 25.95C18.008 27.35 19.992 27.35 20.405 25.95L20.505 25.61C20.5667 25.4004 20.6745 25.2073 20.8206 25.0448C20.9667 24.8823 21.1472 24.7546 21.3491 24.6709C21.551 24.5873 21.769 24.5499 21.9872 24.5615C22.2053 24.5731 22.4182 24.6334 22.61 24.738L22.92 24.908C24.203 25.606 25.606 24.203 24.907 22.921L24.738 22.61C24.6334 22.4182 24.5731 22.2053 24.5615 21.9872C24.5499 21.769 24.5873 21.551 24.6709 21.3491C24.7546 21.1472 24.8823 20.9667 25.0448 20.8206C25.2073 20.6745 25.4004 20.5667 25.61 20.505L25.95 20.405C27.35 19.992 27.35 18.008 25.95 17.595L25.61 17.495C25.4004 17.4333 25.2073 17.3255 25.0448 17.1794C24.8823 17.0333 24.7546 16.8528 24.6709 16.6509C24.5873 16.449 24.5499 16.231 24.5615 16.0128C24.5731 15.7947 24.6334 15.5818 24.738 15.39L24.908 15.08C25.606 13.797 24.203 12.394 22.921 13.093L22.61 13.262C22.4182 13.3666 22.2053 13.4269 21.9872 13.4385C21.769 13.4501 21.551 13.4127 21.3491 13.3291C21.1472 13.2454 20.9667 13.1177 20.8206 12.9552C20.6745 12.7927 20.5667 12.5996 20.505 12.39L20.405 12.05ZM19 21.93C19.7771 21.93 20.5223 21.6213 21.0718 21.0718C21.6213 20.5223 21.93 19.7771 21.93 19C21.93 18.2229 21.6213 17.4777 21.0718 16.9282C20.5223 16.3787 19.7771 16.07 19 16.07C18.2232 16.07 17.4782 16.3786 16.9289 16.9279C16.3796 17.4772 16.071 18.2222 16.071 18.999C16.071 19.7758 16.3796 20.5208 16.9289 21.0701C17.4782 21.6194 18.2232 21.928 19 21.928V21.93Z" fill="#FED22E"/>
</svg>
