<svg width="457" height="444" viewBox="0 0 457 444" fill="none" xmlns="http://www.w3.org/2000/svg">
<g clip-path="url(#clip0_5_135)">
<path fill-rule="evenodd" clip-rule="evenodd" d="M197.285 17.3396C244.529 5.12584 298.277 -12.3711 340.003 12.9868C382.139 38.5942 390.16 95.2241 403.647 142.751C416.623 188.477 439.024 239.681 416.151 281.322C393.549 322.47 331.291 315.065 293.643 343.016C255.405 371.405 244.709 440.004 197.285 443.815C150.589 447.566 121.297 393.507 89.0175 359.456C62.6251 331.617 42.1266 300.868 27.942 265.184C12.7703 227.017 -9.83579 185.658 4.65393 147.225C19.0445 109.055 65.8253 97.9064 99.5917 75.1388C131.756 53.4517 159.755 27.042 197.285 17.3396Z" fill="#993939" fill-opacity="0.1"/>
<path d="M315.283 273.149C363.631 273.149 402.825 234.738 402.825 187.356C402.825 139.974 363.631 101.563 315.283 101.563C266.935 101.563 227.74 139.974 227.74 187.356C227.74 234.738 266.935 273.149 315.283 273.149Z" fill="#FFC900"/>
<path d="M125.987 315.488C170.882 315.488 207.276 279.821 207.276 235.823C207.276 191.825 170.882 156.158 125.987 156.158C81.0921 156.158 44.6976 191.825 44.6976 235.823C44.6976 279.821 81.0921 315.488 125.987 315.488Z" fill="#953089"/>
<path d="M159.615 198.21L149.341 203.746L142.229 196.775L155.663 188.256C155.663 188.256 161.195 177.801 165.147 173.541C174.665 171.496 176.605 198.21 176.605 198.21H159.615Z" fill="#EC8F99"/>
<path d="M157.834 188.565L171.62 165.979L173.476 162.608C174.244 161.212 175.977 160.668 177.416 161.371L191.13 168.073C192.676 168.828 193.28 170.719 192.454 172.219L177.623 199.156C176.84 200.576 175.064 201.111 173.617 200.36L159.027 192.793C157.478 191.99 156.93 190.047 157.834 188.565Z" fill="black"/>
<path d="M156.929 187.033L170.714 164.447L172.57 161.077C173.339 159.68 175.072 159.136 176.511 159.839L190.225 166.541C191.77 167.297 192.374 169.188 191.548 170.688L176.717 197.624C175.935 199.045 174.158 199.579 172.712 198.829L158.121 191.262C156.572 190.459 156.024 188.515 156.929 187.033Z" fill="white"/>
<path d="M159.565 185.354L171.407 165.779L172.851 163.132C173.618 161.725 175.363 161.177 176.807 161.89L188.136 167.478C189.671 168.235 190.271 170.114 189.455 171.609L176.864 194.686C176.083 196.118 174.295 196.656 172.844 195.896L160.753 189.568C159.215 188.763 158.671 186.832 159.565 185.354Z" fill="#1D8B70"/>
<path d="M179.3 174.709L178.929 175.404C181.127 177.626 180.792 180.25 180.384 181.221L180.997 181.938C182.36 178.516 180.434 175.693 179.3 174.709Z" fill="white"/>
<path d="M176.176 173.104L175.805 173.799C172.69 173.296 170.68 175.061 170.099 175.943L169.149 175.859C171.241 172.811 174.705 172.752 176.176 173.104Z" fill="white"/>
<path d="M179.188 173.521L177.234 172.52L170.959 184.271L171.675 184.639L177.587 173.568L178.108 173.835L172.196 184.906L172.912 185.273L179.188 173.521Z" fill="white"/>
<path d="M177.457 184.064L178.614 183.45L179.288 182.186L179.708 182.643C178.602 184.249 176.854 184.881 176.162 185.09L179.705 178.456L178.356 176.477L173.633 185.322L174.284 185.656L178.468 177.821L178.95 178.471L174.935 185.99C178.006 185.955 180.031 183.694 180.66 182.568L179.245 180.715L177.457 184.064Z" fill="white"/>
<path d="M169.383 179.923L169.238 178.642L169.913 177.378L169.291 177.3C168.575 179.106 169.041 180.875 169.261 181.551L172.803 174.916L175.231 174.874L170.508 183.719L169.857 183.385L174.04 175.551L173.221 175.533L169.206 183.052C167.485 180.559 168.225 177.639 168.811 176.491L171.171 176.575L169.383 179.923Z" fill="white"/>
<path d="M170.771 183.692C170.622 183.971 170.268 184.078 169.98 183.93C169.692 183.783 169.58 183.437 169.729 183.158C169.878 182.879 170.232 182.772 170.52 182.919C170.808 183.067 170.92 183.413 170.771 183.692Z" fill="white"/>
<path d="M171.805 184.706C171.656 184.985 171.302 185.092 171.015 184.944C170.727 184.796 170.615 184.451 170.764 184.171C170.913 183.892 171.267 183.786 171.555 183.933C171.842 184.081 171.955 184.427 171.805 184.706Z" fill="white"/>
<path d="M174.547 185.63C174.398 185.909 174.044 186.015 173.756 185.868C173.469 185.72 173.356 185.374 173.505 185.095C173.655 184.816 174.009 184.709 174.296 184.857C174.584 185.004 174.696 185.35 174.547 185.63Z" fill="white"/>
<path d="M173.107 185.374C172.958 185.653 172.604 185.76 172.316 185.612C172.029 185.464 171.916 185.119 172.066 184.839C172.215 184.56 172.569 184.454 172.856 184.601C173.144 184.749 173.256 185.095 173.107 185.374Z" fill="white"/>
<path d="M150.922 202.468C149.025 205.566 140.385 212.02 136.302 214.859L133.931 216.408L125.633 205.178L143.809 194.336L150.922 202.468Z" fill="#7EADD9"/>
<path d="M154.873 224.155C152.634 227.511 148.156 234.3 148.156 234.61L143.019 240.806C143.019 240.806 147.236 251.524 153.292 252.423C159.614 242.355 163.171 231.899 163.171 231.899C174.234 232.674 172.259 226.865 174.234 221.057C176.605 212.538 170.415 212.796 166.332 213.312C171.389 203.089 167.649 201.824 165.146 202.47L160.8 211.376C157.955 212.925 155.663 220.541 154.873 224.155Z" fill="#FBA6AF" stroke="#FBA6AF"/>
<path d="M65.1786 280.303C70.3385 237.32 83.3544 210.244 89.2814 198.498C100.082 192.947 122.201 197.86 117.46 217.996C112.718 238.132 117.46 261.45 119.311 271.397C119.944 273.256 117.994 285.596 116.941 291.533H89.2814C81.7739 284.692 64.5464 285.57 65.1786 280.303Z" fill="#1C63A4"/>
<path d="M158.034 245.065C136.223 289.055 123.79 281.207 119.707 271.397C111.409 253.197 110.224 196.273 128.005 206.729C142.229 215.093 142.361 233.706 140.649 241.967L148.551 233.061C151.396 240.495 155.137 243.645 158.034 245.065Z" fill="#7EADD9"/>
<g filter="url(#filter0_d_5_135)">
<path d="M138.278 158.325C129.427 156.776 117.468 162.069 113.385 164.908C103.111 172.266 106.667 199.759 128.795 202.47C146.497 204.639 153.556 194.596 154.873 189.304C161.986 162.198 149.341 160.261 138.278 158.325Z" fill="#F7A6AD"/>
</g>
<path d="M88.396 176.972C78.2806 186.266 81.2836 195.301 84.0495 198.657C84.4446 199.137 87.0789 201.239 88.396 202.53C88.7911 207.693 91.2409 217.244 97.879 214.147C104.517 211.049 109.074 211.307 110.523 211.823C112.235 213.63 116.371 217.244 119.216 217.244C127.909 216.857 134.231 202.53 127.514 197.883C122.14 194.165 118.426 186.266 117.24 182.781C107.125 178.134 114.079 168.84 120.006 175.81C125.38 174.571 126.987 170.647 127.119 168.84C133.757 174.107 137.26 169.227 138.182 166.13C139.631 168.453 144.899 171.164 147.665 169.615C152.802 166.13 154.383 167.678 155.568 171.164C156.516 173.952 155.436 184.717 154.778 189.751C171.373 160.321 146.575 142.836 127.909 141.734C116.213 140.495 105.913 158.772 102.225 168.066C100.513 168.969 95.3502 172.015 88.396 176.972Z" fill="#25282B"/>
<path opacity="0.4" d="M140.648 242.354C139.595 246.484 137.171 254.822 135.907 255.132C135.907 255.132 141.439 253.971 140.648 242.354Z" fill="#25282B"/>
<path d="M165.937 202.082C168.307 202.211 171.863 204.483 167.122 212.537" stroke="#E2685B"/>
<path d="M133.891 180.637C134.953 180.525 135.721 179.59 135.607 178.55C135.493 177.509 134.539 176.756 133.477 176.867C132.415 176.979 131.647 177.914 131.761 178.954C131.875 179.995 132.828 180.748 133.891 180.637Z" fill="#25282B"/>
<path d="M148.506 181.069C149.568 180.957 150.336 180.022 150.222 178.982C150.108 177.941 149.154 177.188 148.092 177.299C147.03 177.411 146.262 178.346 146.376 179.386C146.49 180.427 147.443 181.18 148.506 181.069Z" fill="#25282B"/>
<path d="M141.86 182.012L144.927 189.091L140.236 190.265" stroke="#E2685B"/>
<path d="M148.853 174.062C149.667 174.132 150.497 174.352 150.944 174.765C151.159 174.896 151.406 175.328 151.223 175.5C151.056 175.822 150.441 175.732 149.843 175.793C148.814 175.592 147.617 175.714 146.62 175.816C146.022 175.877 145.24 176.109 144.809 175.848C143.963 175.476 144.266 174.529 145.032 174.146C145.997 173.742 147.84 174.012 148.853 174.062Z" fill="#25282B"/>
<path d="M131.181 173.707C130.376 173.809 129.562 174.062 129.135 174.49C128.927 174.628 128.7 175.068 128.889 175.231C129.069 175.544 129.675 175.43 130.271 175.466C131.285 175.225 132.478 175.297 133.472 175.358C134.069 175.394 134.855 175.593 135.271 175.316C136.095 174.912 135.755 173.984 134.978 173.635C134.003 173.273 132.185 173.617 131.181 173.707Z" fill="#25282B"/>
<path d="M130.469 189.407L140.154 193.191C140.154 193.191 138.098 197.039 134.694 196.495C131.368 195.786 129.372 193.291 130.469 189.407Z" fill="white"/>
<path d="M161.59 236.934C157.639 234.998 153.029 230.61 151.712 228.415C152.239 226.995 153.292 226.092 153.292 226.092C154.478 227.641 159.878 232.288 162.776 234.224L161.59 236.934Z" fill="#25282B"/>
<path d="M160.3 231.899C160.3 233.538 158.942 234.884 157.244 234.884C155.547 234.884 154.188 233.538 154.188 231.899C154.188 230.26 155.547 228.914 157.244 228.914C158.942 228.914 160.3 230.26 160.3 231.899Z" fill="#FFF3F3" stroke="#25282B"/>
<path d="M118.557 159.342C119.113 158.795 120.008 158.769 120.594 159.284L126.802 164.737C127.664 165.494 127.702 166.804 126.886 167.609C126.055 168.427 124.689 168.379 123.921 167.504L118.485 161.309C117.981 160.736 118.013 159.878 118.557 159.342Z" fill="#FED22E"/>
<path d="M122.887 156.244C123.442 155.697 124.337 155.672 124.923 156.187L131.132 161.639C131.994 162.396 132.032 163.707 131.216 164.511C130.385 165.33 129.019 165.281 128.251 164.406L122.814 158.212C122.311 157.638 122.342 156.781 122.887 156.244Z" fill="#FED22E"/>
<path d="M132.729 202.856C138.524 202.985 151.063 200.455 154.856 189.303" stroke="#E2685B"/>
<path d="M365.19 163.479L347.895 156.5C332.839 164.875 320.935 159.99 316.866 156.5C312.627 158.328 303.03 162.482 298.553 164.476C292.958 166.969 291.432 168.464 288.889 171.455C286.854 173.848 270.068 201.034 261.929 214.327C260.403 220.143 259.894 232.074 270.068 233.271C277.393 233.67 281.598 226.458 282.785 222.802H285.837C286.006 224.298 286.142 227.289 285.328 227.289H293.976C293.297 241.081 292.348 269.263 293.976 271.656C296.01 274.647 369.26 276.641 370.277 271.656C371.091 267.668 369.938 236.76 369.259 221.306L375.363 221.805L374.855 238.754C388.691 241.546 391.133 231.277 390.115 225.295L381.468 187.906C378.924 168.963 370.107 165.307 365.19 163.479Z" fill="#A2814B"/>
<path opacity="0.4" d="M366.524 203.477C368.415 212.128 369.046 220.162 369.603 222.435C369.603 222.435 365.263 218.308 366.524 203.477Z" fill="#25282B"/>
<path d="M347.985 156.063C339.938 157.252 338.672 139.394 338.091 135.978C340.221 137.107 345.342 138.152 348.785 133.306C352.228 128.46 346.524 114.568 343.242 108.228L307.209 98.2922L302.82 115.348C298.64 139.297 311.775 153.113 318.884 154.754C316.544 162.383 314.022 160.84 314.022 160.84C318.884 166.402 345.862 161.807 347.985 156.063Z" fill="#F7A3A0"/>
<path d="M315.351 144.137L328.2 140.332C328.2 140.332 329.279 145.823 325.407 147.951C321.478 149.853 317.425 148.909 315.351 144.137Z" fill="white"/>
<path d="M323.538 127.196C322.478 127.259 321.566 126.468 321.502 125.429C321.438 124.391 322.244 123.498 323.304 123.434C324.364 123.371 325.276 124.162 325.34 125.201C325.404 126.239 324.597 127.132 323.538 127.196Z" fill="#25282B"/>
<path d="M309.421 128.411C308.361 128.474 307.449 127.683 307.385 126.644C307.321 125.606 308.127 124.713 309.187 124.649C310.247 124.586 311.159 125.377 311.223 126.416C311.287 127.454 310.48 128.347 309.421 128.411Z" fill="#25282B"/>
<path d="M315.16 128.326L313.122 136.71L318.529 137.148" stroke="#E2685B"/>
<path d="M307.894 121.603C307.108 121.804 306.332 122.155 305.964 122.632C305.775 122.795 305.606 123.26 305.815 123.398C306.033 123.687 306.62 123.498 307.217 123.461C308.192 123.097 309.385 123.022 310.379 122.959C310.976 122.921 311.782 123.022 312.16 122.696C312.926 122.194 312.469 121.315 311.653 121.064C310.639 120.825 308.879 121.39 307.894 121.603Z" fill="#25282B"/>
<path d="M325.022 119.964C325.828 119.934 326.669 120.049 327.159 120.399C327.387 120.501 327.684 120.895 327.526 121.085C327.403 121.421 326.79 121.408 326.211 121.54C325.177 121.469 324.02 121.734 323.056 121.955C322.477 122.087 321.741 122.41 321.285 122.206C320.41 121.945 320.586 120.98 321.288 120.511C322.183 119.998 324.023 120.039 325.022 119.964Z" fill="#25282B"/>
<path d="M337.689 136.13C335.379 142.012 329.285 157.914 321.062 157.66C320.778 157.595 320.113 156.504 318.882 154.751C322.072 155.975 330.28 153.93 337.717 136.062C337.785 135.874 337.863 135.667 337.838 135.771C337.798 135.868 337.758 135.965 337.717 136.062C337.639 136.277 337.573 136.467 337.689 136.13Z" fill="#E7847C"/>
<path d="M346.147 127.407C347.68 132.903 341.432 135.182 338.014 135.666L339.239 141.825C350.739 141.425 352.718 133.381 352.269 129.409C361.968 126.507 364.784 108.5 352.221 104.571C353.606 100.043 353.746 95.0806 349.956 92.7365C346.924 90.8613 343.441 92.9951 342.079 94.2965C340.763 74.7483 314.589 77.5189 312.037 89.4163C303.17 85.8412 297.602 93.0857 295.927 97.1548C294.285 102.75 291.5 114.995 293.49 119.215C295.479 123.435 300.135 124.667 302.215 124.755C301.311 123.019 302.498 117.525 303.204 114.994C316.534 119.483 322.637 111.549 324.023 107.021C325.792 111.66 330.483 114.291 332.608 115.026C332.396 117.915 333.014 122.514 333.35 124.452C340.405 120.059 344.488 123.058 346.147 127.407Z" fill="#25282B"/>
<path d="M317.375 163.978C318.189 163.978 321.784 162.15 323.479 159.99C327.04 160.987 327.549 160.987 329.583 160.987L334.161 166.969L328.566 169.96L332.635 265.675L320.936 275.645L313.595 265.675L322.462 169.96L317.375 163.978Z" fill="#221C1F"/>
<path d="M246.669 180.927C250.738 193.39 259.385 228.285 265.998 230.778C265.998 230.778 272.877 231.991 276.172 229.781C283.293 225.793 278.206 214.327 278.206 214.327L259.894 176.939C261.929 175.443 262.946 160.488 256.333 157.497C250.259 154.749 242.599 161.983 240.564 167.467C238.937 171.854 243.956 178.268 246.669 180.927Z" fill="#F7A3A0"/>
<path d="M333.144 169.462L329.583 160.988C340.265 161.486 347.895 156.002 347.895 156.501C347.488 161.287 337.891 167.634 333.144 169.462Z" fill="#825409"/>
<path d="M317.375 166.471C319.409 165.973 321.953 162.151 323.479 159.99C320.427 158.993 318.901 157.996 316.866 156.501L313.305 157.996C314.153 160.655 315.34 163.48 317.375 166.471Z" fill="#825409"/>
<path d="M275.738 177.473C275.426 175.112 277.233 173.009 279.614 172.961L311.712 172.315C313.771 172.274 315.528 173.801 315.775 175.845L321.414 222.61C321.701 224.988 319.847 227.078 317.452 227.078H285.793C283.782 227.078 282.08 225.586 281.817 223.592L275.738 177.473Z" fill="#CDCDCD"/>
<path d="M276.755 178.182C276.444 175.821 278.25 173.718 280.631 173.67L312.73 173.024C314.788 172.983 316.545 174.51 316.792 176.554L322.431 223.319C322.718 225.697 320.865 227.787 318.469 227.787H286.81C284.799 227.787 283.097 226.295 282.834 224.301L276.755 178.182Z" fill="#94ACBB"/>
<path d="M377.909 221.308C364.005 219.979 332.739 216.822 331.111 216.822C329.924 215.658 325.372 202.242 320.958 202.242C315.283 202.242 330.416 218.309 307.712 210.839C304.66 213.83 303.437 219.613 304.658 222.803C305.879 225.994 314.83 230.779 329.583 229.284C334.059 231.278 360.784 236.596 372.822 238.756C389.608 240.75 384.522 221.94 377.909 221.308Z" fill="#F7A3A0"/>
<path d="M311.779 180.429C312.903 180.429 313.814 179.536 313.814 178.435C313.814 177.334 312.903 176.441 311.779 176.441C310.655 176.441 309.744 177.334 309.744 178.435C309.744 179.536 310.655 180.429 311.779 180.429Z" fill="#221C1F"/>
<path d="M337.213 187.412C337.213 186.86 337.661 186.412 338.213 186.412H352.491C353.043 186.412 353.491 186.86 353.491 187.412V197.362C353.491 200.675 350.804 203.361 347.491 203.361H343.213C339.899 203.361 337.213 200.675 337.213 197.361V187.412Z" fill="#825409"/>
<path d="M159.615 198.21L149.341 203.746L142.229 196.775L155.663 188.256C155.663 188.256 161.195 177.801 165.147 173.541C174.665 171.496 176.605 198.21 176.605 198.21H159.615Z" fill="#EC8F99"/>
<path d="M157.834 188.565L171.62 165.979L173.476 162.608C174.244 161.212 175.977 160.668 177.416 161.371L191.13 168.073C192.676 168.828 193.28 170.719 192.454 172.219L177.623 199.156C176.84 200.576 175.064 201.111 173.617 200.36L159.027 192.793C157.478 191.99 156.93 190.047 157.834 188.565Z" fill="black"/>
<path d="M156.929 187.033L170.714 164.447L172.57 161.077C173.339 159.68 175.072 159.136 176.511 159.839L190.225 166.541C191.77 167.297 192.374 169.188 191.548 170.688L176.717 197.624C175.935 199.045 174.158 199.579 172.712 198.829L158.121 191.262C156.572 190.459 156.024 188.515 156.929 187.033Z" fill="white"/>
<path d="M159.565 185.354L171.407 165.779L172.851 163.132C173.618 161.725 175.363 161.177 176.807 161.89L188.136 167.478C189.671 168.235 190.271 170.114 189.455 171.609L176.864 194.686C176.083 196.118 174.295 196.656 172.844 195.896L160.753 189.568C159.215 188.763 158.671 186.832 159.565 185.354Z" fill="#8B1D1D"/>
<g filter="url(#filter1_d_5_135)">
<path d="M167.921 176.51L167.72 176.804L168.333 177.086L168.073 177.458L167.46 177.176L167.237 177.496L167.932 177.816L167.663 178.207L166.431 177.641L167.654 175.876L168.884 176.44L168.616 176.829L167.921 176.51ZM169.766 177.76L169.483 178.168L168.248 177.601L168.531 177.193L169.766 177.76ZM171.67 178.496C171.597 178.603 171.503 178.688 171.388 178.752C171.275 178.815 171.146 178.848 171.002 178.852C170.858 178.854 170.707 178.819 170.551 178.748L170.287 178.626L169.874 179.222L169.337 178.976L170.56 177.21L171.359 177.577C171.561 177.67 171.693 177.787 171.756 177.928C171.82 178.067 171.816 178.214 171.745 178.368C171.728 178.407 171.703 178.449 171.67 178.496ZM170.77 178.336C170.921 178.406 171.04 178.376 171.128 178.247C171.143 178.223 171.153 178.205 171.158 178.195C171.181 178.145 171.182 178.1 171.162 178.057C171.144 178.014 171.103 177.978 171.037 177.948L170.825 177.85L170.557 178.239L170.77 178.336ZM172.406 180.005L171.724 179.692L171.422 179.933L170.86 179.675L172.782 178.23L173.398 178.513L172.875 180.6L172.311 180.341L172.406 180.005ZM172.53 179.57L172.721 178.902L172.118 179.381L172.53 179.57ZM173.762 180.516L174.359 180.79L174.099 181.162L172.965 180.642L174.188 178.876L174.723 179.121L173.762 180.516ZM175.639 181.49L174.958 181.177L174.656 181.418L174.094 181.16L176.015 179.715L176.632 179.998L176.109 182.085L175.544 181.826L175.639 181.49ZM175.763 181.055L175.954 180.387L175.352 180.866L175.763 181.055ZM178.532 181.646C178.458 181.753 178.364 181.839 178.249 181.903C178.136 181.965 178.008 181.999 177.863 182.003C177.719 182.005 177.569 181.97 177.412 181.898L177.148 181.777L176.736 182.373L176.198 182.126L177.422 180.361L178.221 180.728C178.422 180.82 178.555 180.937 178.618 181.078C178.681 181.218 178.678 181.364 178.607 181.519C178.589 181.557 178.564 181.6 178.532 181.646ZM177.631 181.487C177.782 181.556 177.901 181.526 177.989 181.397C178.004 181.373 178.015 181.356 178.02 181.345C178.042 181.296 178.043 181.25 178.023 181.208C178.006 181.165 177.964 181.128 177.899 181.098L177.686 181.001L177.418 181.389L177.631 181.487ZM179.267 183.156L178.585 182.843L178.283 183.084L177.722 182.826L179.643 181.381L180.259 181.664L179.737 183.751L179.172 183.492L179.267 183.156ZM179.391 182.721L179.582 182.053L178.979 182.532L179.391 182.721Z" fill="white"/>
</g>
<path d="M150.922 202.468C149.025 205.566 140.385 212.02 136.302 214.859L133.931 216.408L125.633 205.178L143.809 194.336L150.922 202.468Z" fill="#7EADD9"/>
<path d="M154.873 224.155C152.634 227.511 148.156 234.3 148.156 234.61L143.019 240.806C143.019 240.806 147.236 251.524 153.292 252.423C159.614 242.355 163.171 231.899 163.171 231.899C174.234 232.674 172.259 226.865 174.234 221.057C176.605 212.538 170.415 212.796 166.332 213.312C171.389 203.089 167.649 201.824 165.146 202.47L160.8 211.376C157.955 212.925 155.663 220.541 154.873 224.155Z" fill="#FBA6AF" stroke="#FBA6AF"/>
<path d="M65.1786 280.303C70.3385 237.32 83.3544 210.244 89.2814 198.498C100.082 192.947 122.201 197.86 117.46 217.996C112.718 238.132 117.46 261.45 119.311 271.397C119.944 273.256 117.994 285.596 116.941 291.533H89.2814C81.7739 284.692 64.5464 285.57 65.1786 280.303Z" fill="#1C63A4"/>
<path d="M158.034 245.065C136.223 289.055 123.79 281.207 119.707 271.397C111.409 253.197 110.224 196.273 128.005 206.729C142.229 215.093 142.361 233.706 140.649 241.967L148.551 233.061C151.396 240.495 155.137 243.645 158.034 245.065Z" fill="#7EADD9"/>
<g filter="url(#filter2_d_5_135)">
<path d="M138.278 158.325C129.427 156.776 117.468 162.069 113.385 164.908C103.111 172.266 106.667 199.759 128.795 202.47C146.497 204.639 153.556 194.596 154.873 189.304C161.986 162.198 149.341 160.261 138.278 158.325Z" fill="#F7A6AD"/>
</g>
<path d="M88.396 176.972C78.2806 186.266 81.2836 195.301 84.0495 198.657C84.4446 199.137 87.0789 201.239 88.396 202.53C88.7911 207.693 91.2409 217.244 97.879 214.147C104.517 211.049 109.074 211.307 110.523 211.823C112.235 213.63 116.371 217.244 119.216 217.244C127.909 216.857 134.231 202.53 127.514 197.883C122.14 194.165 118.426 186.266 117.24 182.781C107.125 178.134 114.079 168.84 120.006 175.81C125.38 174.571 126.987 170.647 127.119 168.84C133.757 174.107 137.26 169.227 138.182 166.13C139.631 168.453 144.899 171.164 147.665 169.615C152.802 166.13 154.383 167.678 155.568 171.164C156.516 173.952 155.436 184.717 154.778 189.751C171.373 160.321 146.575 142.836 127.909 141.734C116.213 140.495 105.913 158.772 102.225 168.066C100.513 168.969 95.3502 172.015 88.396 176.972Z" fill="#25282B"/>
<path opacity="0.4" d="M140.648 242.354C139.595 246.484 137.171 254.822 135.907 255.132C135.907 255.132 141.439 253.971 140.648 242.354Z" fill="#25282B"/>
<path d="M165.937 202.082C168.307 202.211 171.863 204.483 167.122 212.537" stroke="#E2685B"/>
<path d="M133.891 180.637C134.953 180.525 135.721 179.59 135.607 178.55C135.493 177.509 134.539 176.756 133.477 176.867C132.415 176.979 131.647 177.914 131.761 178.954C131.875 179.995 132.828 180.748 133.891 180.637Z" fill="#25282B"/>
<path d="M148.506 181.069C149.568 180.957 150.336 180.022 150.222 178.982C150.108 177.941 149.154 177.188 148.092 177.299C147.03 177.411 146.262 178.346 146.376 179.386C146.49 180.427 147.443 181.18 148.506 181.069Z" fill="#25282B"/>
<path d="M141.86 182.012L144.927 189.091L140.236 190.265" stroke="#E2685B"/>
<path d="M148.853 174.062C149.667 174.132 150.497 174.352 150.944 174.765C151.159 174.896 151.406 175.328 151.223 175.5C151.056 175.822 150.441 175.732 149.843 175.793C148.814 175.592 147.617 175.714 146.62 175.816C146.022 175.877 145.24 176.109 144.809 175.848C143.963 175.476 144.266 174.529 145.032 174.146C145.997 173.742 147.84 174.012 148.853 174.062Z" fill="#25282B"/>
<path d="M131.181 173.707C130.376 173.809 129.562 174.062 129.135 174.49C128.927 174.628 128.7 175.068 128.889 175.231C129.069 175.544 129.675 175.43 130.271 175.466C131.285 175.225 132.478 175.297 133.472 175.358C134.069 175.394 134.855 175.593 135.271 175.316C136.095 174.912 135.755 173.984 134.978 173.635C134.003 173.273 132.185 173.617 131.181 173.707Z" fill="#25282B"/>
<path d="M130.469 189.407L140.154 193.191C140.154 193.191 138.098 197.039 134.694 196.495C131.368 195.786 129.372 193.291 130.469 189.407Z" fill="white"/>
<path d="M161.59 236.934C157.639 234.998 153.029 230.61 151.712 228.415C152.239 226.995 153.292 226.092 153.292 226.092C154.478 227.641 159.878 232.288 162.776 234.224L161.59 236.934Z" fill="#25282B"/>
<path d="M160.3 231.899C160.3 233.538 158.942 234.884 157.244 234.884C155.547 234.884 154.188 233.538 154.188 231.899C154.188 230.26 155.547 228.914 157.244 228.914C158.942 228.914 160.3 230.26 160.3 231.899Z" fill="#FFF3F3" stroke="#25282B"/>
<path d="M118.557 159.342C119.113 158.795 120.008 158.769 120.594 159.284L126.802 164.737C127.664 165.494 127.702 166.804 126.886 167.609C126.055 168.427 124.689 168.379 123.921 167.504L118.485 161.309C117.981 160.736 118.013 159.878 118.557 159.342Z" fill="#FED22E"/>
<path d="M122.887 156.244C123.442 155.697 124.337 155.672 124.923 156.187L131.132 161.639C131.994 162.396 132.032 163.707 131.216 164.511C130.385 165.33 129.019 165.281 128.251 164.406L122.814 158.212C122.311 157.638 122.342 156.781 122.887 156.244Z" fill="#FED22E"/>
<path d="M132.729 202.856C138.524 202.985 151.063 200.455 154.856 189.303" stroke="#E2685B"/>
<path d="M365.19 163.479L347.895 156.5C332.839 164.875 320.935 159.99 316.866 156.5C312.627 158.328 303.03 162.482 298.553 164.476C292.958 166.969 291.432 168.464 288.889 171.455C286.854 173.848 270.068 201.034 261.929 214.327C260.403 220.143 259.894 232.074 270.068 233.271C277.393 233.67 281.598 226.458 282.785 222.802H285.837C286.006 224.298 286.142 227.289 285.328 227.289H293.976C293.297 241.081 292.348 269.263 293.976 271.656C296.01 274.647 369.26 276.641 370.277 271.656C371.091 267.668 369.938 236.76 369.259 221.306L375.363 221.805L374.855 238.754C388.691 241.546 391.133 231.277 390.115 225.295L381.468 187.906C378.924 168.963 370.107 165.307 365.19 163.479Z" fill="#A2814B"/>
<path opacity="0.4" d="M366.524 203.477C368.415 212.128 369.046 220.162 369.603 222.435C369.603 222.435 365.263 218.308 366.524 203.477Z" fill="#25282B"/>
<path d="M347.985 156.063C339.938 157.252 338.672 139.394 338.091 135.978C340.221 137.107 345.342 138.152 348.785 133.306C352.228 128.46 346.524 114.568 343.242 108.228L307.209 98.2922L302.82 115.348C298.64 139.297 311.775 153.113 318.884 154.754C316.544 162.383 314.022 160.84 314.022 160.84C318.884 166.402 345.862 161.807 347.985 156.063Z" fill="#F7A3A0"/>
<path d="M315.351 144.137L328.2 140.332C328.2 140.332 329.279 145.823 325.407 147.951C321.478 149.853 317.425 148.909 315.351 144.137Z" fill="white"/>
<path d="M323.538 127.196C322.478 127.259 321.566 126.468 321.502 125.429C321.438 124.391 322.244 123.498 323.304 123.434C324.364 123.371 325.276 124.162 325.34 125.201C325.404 126.239 324.597 127.132 323.538 127.196Z" fill="#25282B"/>
<path d="M309.421 128.411C308.361 128.474 307.449 127.683 307.385 126.644C307.321 125.606 308.127 124.713 309.187 124.649C310.247 124.586 311.159 125.377 311.223 126.416C311.287 127.454 310.48 128.347 309.421 128.411Z" fill="#25282B"/>
<path d="M315.16 128.326L313.122 136.71L318.529 137.148" stroke="#E2685B"/>
<path d="M307.894 121.603C307.108 121.804 306.332 122.155 305.964 122.632C305.775 122.795 305.606 123.26 305.815 123.398C306.033 123.687 306.62 123.498 307.217 123.461C308.192 123.097 309.385 123.022 310.379 122.959C310.976 122.921 311.782 123.022 312.16 122.696C312.926 122.194 312.469 121.315 311.653 121.064C310.639 120.825 308.879 121.39 307.894 121.603Z" fill="#25282B"/>
<path d="M325.022 119.964C325.828 119.934 326.669 120.049 327.159 120.399C327.387 120.501 327.684 120.895 327.526 121.085C327.403 121.421 326.79 121.408 326.211 121.54C325.177 121.469 324.02 121.734 323.056 121.955C322.477 122.087 321.741 122.41 321.285 122.206C320.41 121.945 320.586 120.98 321.288 120.511C322.183 119.998 324.023 120.039 325.022 119.964Z" fill="#25282B"/>
<path d="M337.689 136.13C335.379 142.012 329.285 157.914 321.062 157.66C320.778 157.595 320.113 156.504 318.882 154.751C322.072 155.975 330.28 153.93 337.717 136.062C337.785 135.874 337.863 135.667 337.838 135.771C337.798 135.868 337.758 135.965 337.717 136.062C337.639 136.277 337.573 136.467 337.689 136.13Z" fill="#E7847C"/>
<path d="M346.147 127.407C347.68 132.903 341.432 135.182 338.014 135.666L339.239 141.825C350.739 141.425 352.718 133.381 352.269 129.409C361.968 126.507 364.784 108.5 352.221 104.571C353.606 100.043 353.746 95.0806 349.956 92.7365C346.924 90.8613 343.441 92.9951 342.079 94.2965C340.763 74.7483 314.589 77.5189 312.037 89.4163C303.17 85.8412 297.602 93.0857 295.927 97.1548C294.285 102.75 291.5 114.995 293.49 119.215C295.479 123.435 300.135 124.667 302.215 124.755C301.311 123.019 302.498 117.525 303.204 114.994C316.534 119.483 322.637 111.549 324.023 107.021C325.792 111.66 330.483 114.291 332.608 115.026C332.396 117.915 333.014 122.514 333.35 124.452C340.405 120.059 344.488 123.058 346.147 127.407Z" fill="#25282B"/>
<path d="M317.375 163.978C318.189 163.978 321.784 162.15 323.479 159.99C327.04 160.987 327.549 160.987 329.583 160.987L334.161 166.969L328.566 169.96L332.635 265.675L320.936 275.645L313.595 265.675L322.462 169.96L317.375 163.978Z" fill="#221C1F"/>
<path d="M246.669 180.927C250.738 193.39 259.385 228.285 265.998 230.778C265.998 230.778 272.877 231.991 276.172 229.781C283.293 225.793 278.206 214.327 278.206 214.327L259.894 176.939C261.929 175.443 262.946 160.488 256.333 157.497C250.259 154.749 242.599 161.983 240.564 167.467C238.937 171.854 243.956 178.268 246.669 180.927Z" fill="#F7A3A0"/>
<path d="M333.144 169.462L329.583 160.988C340.265 161.486 347.895 156.002 347.895 156.501C347.488 161.287 337.891 167.634 333.144 169.462Z" fill="#825409"/>
<path d="M317.375 166.471C319.409 165.973 321.953 162.151 323.479 159.99C320.427 158.993 318.901 157.996 316.866 156.501L313.305 157.996C314.153 160.655 315.34 163.48 317.375 166.471Z" fill="#825409"/>
<path d="M275.738 177.473C275.426 175.112 277.233 173.009 279.614 172.961L311.712 172.315C313.771 172.274 315.528 173.801 315.775 175.845L321.414 222.61C321.701 224.988 319.847 227.078 317.452 227.078H285.793C283.782 227.078 282.08 225.586 281.817 223.592L275.738 177.473Z" fill="#CDCDCD"/>
<path d="M276.755 178.182C276.444 175.821 278.25 173.718 280.631 173.67L312.73 173.024C314.788 172.983 316.545 174.51 316.792 176.554L322.431 223.319C322.718 225.697 320.865 227.787 318.469 227.787H286.81C284.799 227.787 283.097 226.295 282.834 224.301L276.755 178.182Z" fill="#94ACBB"/>
<path d="M377.909 221.308C364.005 219.979 332.739 216.822 331.111 216.822C329.924 215.658 325.372 202.242 320.958 202.242C315.283 202.242 330.416 218.309 307.712 210.839C304.66 213.83 303.437 219.613 304.658 222.803C305.879 225.994 314.83 230.779 329.583 229.284C334.059 231.278 360.784 236.596 372.822 238.756C389.608 240.75 384.522 221.94 377.909 221.308Z" fill="#F7A3A0"/>
<path d="M311.779 180.429C312.903 180.429 313.814 179.536 313.814 178.435C313.814 177.334 312.903 176.441 311.779 176.441C310.655 176.441 309.744 177.334 309.744 178.435C309.744 179.536 310.655 180.429 311.779 180.429Z" fill="#221C1F"/>
<path d="M337.213 187.412C337.213 186.86 337.661 186.412 338.213 186.412H352.491C353.043 186.412 353.491 186.86 353.491 187.412V197.362C353.491 200.675 350.804 203.361 347.491 203.361H343.213C339.899 203.361 337.213 200.675 337.213 197.361V187.412Z" fill="#825409"/>
<path d="M213.249 272.081L279.488 282.383L273.515 318.993L207.276 308.69L213.249 272.081Z" fill="#FF3131"/>
<path d="M243.307 295.478L213.221 272.035L279.384 282.355L243.307 295.478Z" fill="#FF7373"/>
<path d="M234.038 85.0895L272.85 97.193C275.976 98.2122 277.799 101.525 276.757 104.582L268.682 129.299C267.641 132.357 264.254 134.14 261.128 133.121L257.351 131.975C257.351 131.975 250.318 136.816 247.844 138.217C246.021 139.237 243.676 138.472 242.764 136.689C241.592 134.14 238.597 126.241 238.597 126.241L222.317 121.145C219.191 120.126 217.367 116.813 218.409 113.756L226.484 89.0391C227.396 85.8539 230.782 84.1977 234.038 85.0895Z" fill="#56CCF2"/>
<path d="M233.908 97.9572L265.426 107.767C266.468 108.15 267.51 107.513 267.901 106.493C268.292 105.474 267.641 104.455 266.599 104.073L235.08 94.2625C234.038 93.8803 232.996 94.5173 232.606 95.5366C232.345 96.5558 232.866 97.7024 233.908 97.9572Z" fill="#FCFCFC"/>
<path d="M231.043 106.621L262.561 116.432C263.603 116.814 264.645 116.177 265.036 115.157C265.427 114.138 264.775 113.119 263.733 112.737L232.215 102.927C231.173 102.544 230.131 103.181 229.74 104.201C229.48 105.22 230.131 106.367 231.043 106.621Z" fill="#FCFCFC"/>
<path d="M245.63 120.764L259.826 125.223C260.868 125.605 261.91 124.968 262.3 123.949C262.691 122.93 262.04 121.911 260.998 121.528L246.802 117.069C245.76 116.687 244.718 117.324 244.327 118.343C243.936 119.362 244.588 120.382 245.63 120.764Z" fill="#FCFCFC"/>
<path opacity="0.1" d="M62.103 295.929C57.2114 284.972 63.2197 273.454 75.5229 270.204C87.8262 266.954 101.766 273.202 106.657 284.16C111.549 295.117 105.54 306.635 93.237 309.885C80.9337 313.135 66.9946 306.887 62.103 295.929Z" fill="#3F3F3F"/>
<path d="M34.6949 303.166C29.3362 291.193 35.8975 278.615 49.3501 275.074C62.8026 271.532 78.0522 278.367 83.4109 290.341C88.7696 302.315 82.2082 314.893 68.7557 318.434C55.3031 321.976 40.0536 315.14 34.6949 303.166Z" fill="#FF3131"/>
<path d="M43.8898 292.76C45.8913 288.416 51.6112 287.217 56.3065 289.176C58.1617 285.283 64.0279 283.632 69.1149 286.211C73.6639 288.621 75.721 293.237 73.3279 296.963L67.3706 308.024C66.2472 309.662 64.3407 310.061 62.7268 309.559L49.3249 303.397C44.0916 301.269 42.0346 296.654 43.8898 292.76Z" fill="white"/>
<path opacity="0.1" d="M425.747 97.7162C428.847 101.256 425.726 106.847 421.078 106.644L383.114 103.872C378.248 103.572 376.606 97.4592 380.324 94.556L401.22 76.773C403.446 74.8139 406.797 74.9722 408.576 77.3829L425.747 97.7162Z" fill="#3F3F3F"/>
<path d="M408.767 93.1828L426.946 115.278C430.159 119.133 427.057 125.251 421.977 124.851L381.56 121.748C376.481 121.348 374.722 114.928 378.64 111.589L401.097 92.6938C403.204 90.4206 406.77 90.6784 408.767 93.1828Z" fill="#FF7D43"/>
<path d="M400.497 100.921C401.299 100.509 402.331 100.814 402.796 101.849C402.796 101.849 403.64 104.482 405.2 107.264L406.712 107.402C406.87 107.479 406.87 107.479 406.947 107.719L406.207 116.226C406.125 116.388 406.125 116.388 405.885 116.471L404.69 116.489C403.797 117.865 402.275 118.529 400.764 118.391L400.048 118.242L395.431 117.99L394.476 117.924C393.521 117.858 392.734 117.068 392.825 116.105C392.912 115.542 393.075 115.219 393.397 114.974L392.6 114.986C391.645 114.92 390.858 114.13 390.949 113.167C391.035 112.605 391.28 112.12 391.76 111.953C391.127 111.641 390.657 111.007 390.825 110.283C390.916 109.32 391.722 108.506 392.677 108.572C392.442 108.255 392.289 107.777 392.294 107.376C392.385 106.413 393.191 105.599 394.147 105.665L400.674 106.049C400.06 104.134 398.975 101.585 400.497 100.921Z" fill="white"/>
<path d="M409.783 116.974L407.633 116.926C407.234 116.932 406.999 116.615 407.004 116.214L407.826 107.545C407.831 107.144 408.153 106.899 408.551 106.893L410.701 106.941C411.1 106.935 411.335 107.252 411.33 107.653L410.507 116.322C410.421 116.884 410.099 117.129 409.783 116.974Z" fill="white"/>
</g>
<defs>
<filter id="filter0_d_5_135" x="103.883" y="158.047" width="57.0576" height="52.7254" filterUnits="userSpaceOnUse" color-interpolation-filters="sRGB">
<feFlood flood-opacity="0" result="BackgroundImageFix"/>
<feColorMatrix in="SourceAlpha" type="matrix" values="0 0 0 0 0 0 0 0 0 0 0 0 0 0 0 0 0 0 127 0" result="hardAlpha"/>
<feOffset dy="4"/>
<feGaussianBlur stdDeviation="2"/>
<feColorMatrix type="matrix" values="0 0 0 0 0.968627 0 0 0 0 0.65098 0 0 0 0 0.678431 0 0 0 0.16 0"/>
<feBlend mode="normal" in2="BackgroundImageFix" result="effect1_dropShadow_5_135"/>
<feBlend mode="normal" in="SourceGraphic" in2="effect1_dropShadow_5_135" result="shape"/>
</filter>
<filter id="filter1_d_5_135" x="146.431" y="165.719" width="54.1882" height="48.0318" filterUnits="userSpaceOnUse" color-interpolation-filters="sRGB">
<feFlood flood-opacity="0" result="BackgroundImageFix"/>
<feColorMatrix in="SourceAlpha" type="matrix" values="0 0 0 0 0 0 0 0 0 0 0 0 0 0 0 0 0 0 127 0" result="hardAlpha"/>
<feOffset dy="10"/>
<feGaussianBlur stdDeviation="10"/>
<feColorMatrix type="matrix" values="0 0 0 0 0 0 0 0 0 0 0 0 0 0 0 0 0 0 0.25 0"/>
<feBlend mode="normal" in2="BackgroundImageFix" result="effect1_dropShadow_5_135"/>
<feBlend mode="normal" in="SourceGraphic" in2="effect1_dropShadow_5_135" result="shape"/>
</filter>
<filter id="filter2_d_5_135" x="103.883" y="158.047" width="57.0576" height="52.7254" filterUnits="userSpaceOnUse" color-interpolation-filters="sRGB">
<feFlood flood-opacity="0" result="BackgroundImageFix"/>
<feColorMatrix in="SourceAlpha" type="matrix" values="0 0 0 0 0 0 0 0 0 0 0 0 0 0 0 0 0 0 127 0" result="hardAlpha"/>
<feOffset dy="4"/>
<feGaussianBlur stdDeviation="2"/>
<feColorMatrix type="matrix" values="0 0 0 0 0.968627 0 0 0 0 0.65098 0 0 0 0 0.678431 0 0 0 0.16 0"/>
<feBlend mode="normal" in2="BackgroundImageFix" result="effect1_dropShadow_5_135"/>
<feBlend mode="normal" in="SourceGraphic" in2="effect1_dropShadow_5_135" result="shape"/>
</filter>
<clipPath id="clip0_5_135">
<rect width="457" height="444" fill="white"/>
</clipPath>
</defs>
</svg>
