<svg width="512" height="513" viewBox="0 0 512 513" fill="none" xmlns="http://www.w3.org/2000/svg">
<path d="M255.982 471.271C221.662 471.271 188.854 463.431 158.473 447.966C154.272 445.826 152.601 440.687 154.74 436.485C156.877 432.284 162.014 430.61 166.218 432.75C194.177 446.981 224.378 454.197 255.982 454.197C279.729 454.197 302.948 450.044 324.998 441.851C329.419 440.205 334.33 442.46 335.973 446.88C337.614 451.299 335.364 456.214 330.944 457.855C306.986 466.758 281.764 471.271 255.982 471.271Z" fill="#BA1C1C"/>
<path d="M115.806 416.48C113.736 416.48 111.66 415.732 110.019 414.216C65.9915 373.569 40.7393 315.906 40.7393 256.011C40.7393 199.018 62.7926 145.299 102.836 104.752C106.148 101.397 111.552 101.363 114.907 104.677C118.261 107.99 118.294 113.395 114.982 116.749C78.116 154.08 57.8119 203.538 57.8119 256.011C57.8119 311.155 81.0611 364.246 121.599 401.671C125.062 404.869 125.279 410.271 122.081 413.733C120.398 415.557 118.106 416.48 115.806 416.48Z" fill="#890F0D"/>
<path d="M471.227 256.01C471.227 276.203 468.427 296.179 462.919 315.415C461.848 319.16 458.435 321.607 454.724 321.607C453.939 321.607 453.154 321.493 452.368 321.265C447.827 319.968 445.209 315.244 446.507 310.714C451.583 293.014 454.155 274.609 454.155 256.01C454.155 245.412 453.313 234.77 451.651 224.401C451.64 224.355 451.64 224.321 451.629 224.275C451.617 224.264 451.617 224.264 451.617 224.252C442.876 169.924 411.418 121.241 365.301 90.6794C361.373 88.0728 360.304 82.7801 362.91 78.8533C365.517 74.9265 370.809 73.8449 374.735 76.4515C424.768 109.609 458.924 162.445 468.45 221.418C468.462 221.453 468.473 221.498 468.473 221.533C468.485 221.543 468.485 221.555 468.485 221.566C470.306 232.87 471.227 244.457 471.227 256.01Z" fill="#BA1C1C"/>
<path d="M153.912 84.75C150.943 84.75 148.059 83.1989 146.485 80.4333C144.153 76.3354 145.585 71.1233 149.683 68.7912C181.918 50.4469 218.675 40.7503 255.981 40.7503C278.34 40.7503 300.378 44.1652 321.485 50.9012C325.975 52.3346 328.454 57.1383 327.021 61.6304C325.589 66.1203 320.785 68.5973 316.294 67.1671C296.867 60.967 276.575 57.8234 255.981 57.8234C221.631 57.8234 187.793 66.7478 158.126 83.6313C156.793 84.3895 155.342 84.75 153.912 84.75Z" fill="#BA1C1C"/>
<path d="M368.541 437.967C365.749 437.967 363.013 436.599 361.378 434.082C358.807 430.132 359.927 424.843 363.879 422.273C388.209 406.446 409.158 385.052 424.462 360.403C426.951 356.396 432.212 355.165 436.217 357.653C440.223 360.14 441.453 365.403 438.967 369.409C422.349 396.173 399.603 419.401 373.187 436.586C371.751 437.52 370.136 437.967 368.541 437.967Z" fill="#890F0D"/>
<path d="M402.784 465.684C356.55 498.06 302.38 514.007 246.129 511.8C191.697 509.666 138.419 489.845 96.1102 455.989C92.5878 453.17 92.0171 448.029 94.8358 444.506C97.6578 440.983 102.795 440.412 106.318 443.231C188.765 509.208 306.824 512.936 393.413 452.3C395.551 450.804 397.703 449.245 399.811 447.665C403.407 444.961 408.541 445.693 411.246 449.304C413.95 452.915 413.217 458.035 409.607 460.74C407.359 462.425 405.064 464.087 402.784 465.684Z" fill="#890F0D"/>
<path d="M449.047 423.76C446.066 425.847 441.944 425.744 439.052 423.268C435.625 420.335 435.226 415.177 438.16 411.75C509.212 328.747 515.009 208.179 452.257 118.551C446.208 109.912 439.556 101.616 432.485 93.8962C429.439 90.5696 429.665 85.4011 432.992 82.3544C436.316 79.3077 441.485 79.5332 444.534 82.8609C452.083 91.1033 459.184 99.959 465.639 109.18C532.668 204.916 526.472 333.707 450.57 422.376C450.111 422.912 449.598 423.373 449.047 423.76Z" fill="#BA1C1C"/>
<path d="M67.4693 417.892C63.972 420.342 59.1263 419.684 56.4165 416.305C52.9224 411.946 49.5221 407.409 46.3102 402.821C14.7931 357.805 -1.19687 305.057 0.0698203 250.279C1.31146 196.604 18.8666 145.608 50.8378 102.805C53.5411 99.1861 58.6569 98.4487 62.2707 101.148C65.8856 103.848 66.6263 108.968 63.9262 112.582C1.90832 195.615 0.207055 308.487 59.6938 393.45C62.7042 397.751 65.89 402.001 69.164 406.086C71.986 409.605 71.4197 414.747 67.8995 417.57C67.759 417.682 67.6152 417.79 67.4693 417.892Z" fill="#BA1C1C"/>
<path d="M402.311 59.2851C399.583 61.1946 395.846 61.3089 392.955 59.296C310.829 2.10644 200.548 2.26765 118.537 59.6979C118.533 59.7012 118.529 59.7045 118.525 59.7066C112.063 64.2314 105.769 69.1124 99.8146 74.2167C96.3827 77.149 91.232 76.7558 88.2967 73.3289C85.3603 69.9043 85.7579 64.7466 89.1833 61.81C95.5407 56.3615 102.259 51.1505 109.154 46.3229C109.159 46.3196 109.163 46.3163 109.166 46.3141C152.957 15.6481 204.265 -0.365097 257.544 0.00634003C309.655 0.367973 359.708 16.2342 402.291 45.8872C405.993 48.4665 406.906 53.5577 404.328 57.2601C403.761 58.0716 403.075 58.7492 402.311 59.2851Z" fill="#890F0D"/>
<path d="M86.0762 256.008C86.0762 349.855 162.148 425.934 255.985 425.934C349.824 425.934 425.893 349.855 425.893 256.008C425.893 162.161 349.824 86.0826 255.985 86.0826C162.148 86.0826 86.0762 162.161 86.0762 256.008Z" fill="url(#paint0_linear_12167_415)"/>
<path d="M106.492 336.008H127.653V307.341H146.791V255.601H168.963V308.221H187.09V335.775H204.517V418.445" stroke="white" stroke-width="4" stroke-miterlimit="10" stroke-linecap="round"/>
<path d="M195.803 320.414H224.977V422.805" stroke="white" stroke-width="4" stroke-miterlimit="10" stroke-linecap="round"/>
<path d="M224.978 362.895H246.449V396.069H263.72V426.072" stroke="white" stroke-width="4" stroke-miterlimit="10" stroke-linecap="round"/>
<path d="M241.774 350.05L264.421 325.86L286.089 348.849L286.205 422.805" stroke="white" stroke-width="4" stroke-miterlimit="10" stroke-linecap="round"/>
<path d="M285.893 120.24C282.969 123.189 280.121 126.062 277.513 128.694C280.121 131.291 282.954 134.113 285.461 136.611C288.178 133.879 291.031 131.01 293.806 128.219C291.245 125.636 288.459 122.827 285.893 120.24ZM280.756 141.671C278.022 138.912 275.174 136.039 272.481 133.32C269.758 136.049 266.93 138.883 264.265 141.553C267.008 144.288 269.875 147.149 272.569 149.835C275.272 147.139 278.107 144.313 280.756 141.671ZM392.454 227.336C389.572 224.476 386.7 221.624 384.036 218.98C381.395 221.609 378.557 224.433 375.992 226.987C378.737 229.746 381.588 232.612 384.369 235.407C386.998 232.782 389.796 229.989 392.454 227.336ZM371.015 248.502C373.845 245.677 376.678 242.85 379.248 240.284C376.515 237.533 373.667 234.665 371.036 232.015C368.353 234.689 365.519 237.513 362.804 240.221C365.49 242.929 368.307 245.771 371.015 248.502ZM285.498 162.888C288.238 160.127 291.091 157.252 293.608 154.714C290.968 151.98 288.157 149.068 285.682 146.505C282.872 149.258 280.018 152.053 277.288 154.726C280.008 157.431 282.846 160.251 285.498 162.888ZM264.296 115.386C267.044 118.152 269.903 121.029 272.622 123.766C275.31 121.064 278.137 118.221 280.801 115.542C278.051 112.806 275.175 109.944 272.472 107.255C269.773 109.939 266.929 112.768 264.296 115.386ZM259.63 120.401C256.865 123.185 254.011 126.059 251.378 128.71C253.988 131.332 256.817 134.175 259.524 136.894C262.25 134.153 265.079 131.31 267.78 128.597C265.069 125.872 262.241 123.027 259.63 120.401ZM298.489 149.913C301.364 147.064 304.206 144.249 306.838 141.641C304.087 138.896 301.218 136.032 298.575 133.394C295.885 136.096 293.058 138.934 290.336 141.667C293.006 144.367 295.822 147.216 298.489 149.913ZM371.187 205.721C368.333 208.581 365.5 211.421 362.986 213.942C365.723 216.666 368.595 219.524 371.24 222.158C373.843 219.531 376.662 216.686 379.358 213.963C376.696 211.278 373.874 208.431 371.187 205.721ZM349.711 227.109C352.512 229.887 355.361 232.713 357.924 235.255C360.653 232.524 363.518 229.656 366.192 226.981C363.56 224.343 360.73 221.508 357.99 218.762C355.276 221.498 352.453 224.344 349.711 227.109ZM397.343 231.97C394.575 234.765 391.721 237.645 389.083 240.308C391.698 242.93 394.528 245.767 397.075 248.321C399.82 245.554 402.675 242.675 405.321 240.007C402.709 237.376 399.881 234.527 397.343 231.97ZM392.474 253.195C389.717 250.432 386.883 247.59 384.281 244.981C381.483 247.749 378.603 250.598 375.87 253.301C378.573 256.006 381.407 258.843 384.123 261.561C386.857 258.821 389.69 255.984 392.474 253.195ZM273.657 91.9334C275.326 93.1817 277.171 94.2514 278.634 95.7044C292.242 109.221 305.786 122.803 319.346 136.368C323.014 140.036 323.025 143.131 319.383 146.77C315.398 150.755 311.406 154.732 307.447 158.681C309.303 160.464 311.038 162.132 313.149 164.161C314.499 162.709 315.924 160.889 317.639 159.404C319.804 157.53 322.072 155.702 324.538 154.27C327.515 152.539 330.855 152.413 334.246 153.095C334.894 153.226 335.881 152.947 336.353 152.488C343.175 145.862 353.607 145.805 360.233 152.426C366.882 159.067 366.858 169.514 360.231 176.296C359.788 176.75 359.399 177.649 359.531 178.212C360.87 183.929 358.959 188.686 355.324 192.944C354.083 194.399 352.705 195.74 351.427 197.093C353.219 198.863 354.938 200.562 356.832 202.433C359.741 199.509 362.754 196.474 365.777 193.448C369.613 189.61 372.572 189.604 376.445 193.473C390.377 207.393 404.311 221.309 418.194 235.277C419.242 236.33 419.901 237.77 420.74 239.031V241.341C419.442 243.051 418.315 244.93 416.82 246.445C407.665 255.712 398.429 264.898 389.216 274.107C385.76 277.561 382.539 277.558 379.079 274.098C365.103 260.125 351.126 246.153 337.158 232.17C333.686 228.695 333.706 225.514 337.178 222.035C340.712 218.492 344.26 214.959 347.796 211.418C348.285 210.93 348.748 210.416 349.274 209.859C347.42 208.129 345.66 206.486 343.64 204.6C341.515 206.78 339.247 209.113 336.97 211.437C334.692 213.762 332.405 216.077 329.848 218.675C323.096 201.402 311.298 189.623 294.155 182.946C298.06 179.153 301.807 175.513 305.5 171.924C303.423 169.908 301.69 168.228 299.764 166.357C297.353 168.78 294.624 171.288 292.167 174.04C287.067 179.751 283.777 178.987 278.973 174.082C265.594 160.422 251.982 146.991 238.456 133.474C235.185 130.205 235.165 126.904 238.456 123.609C248.114 113.938 257.763 104.257 267.474 94.6391C268.576 93.5466 270.046 92.8266 271.347 91.9334H273.657Z" fill="white"/>
<path d="M223.602 255.201C224.007 253.073 224.376 250.937 224.828 248.82C225.252 246.835 226.076 246.363 228.166 246.741C229.889 247.053 229.947 248.208 229.791 249.633C228.551 261.036 231.771 270.692 241.185 277.736C247.627 282.557 255.031 283.786 262.875 282.932C264.404 282.765 265.735 282.692 265.978 284.722C266.228 286.812 265.605 286.825 263.677 287.899C260.063 289.912 250.619 288.732 250.062 288.674C237.578 287.37 227.792 278.905 224.803 266.763C224.332 264.851 223.998 262.906 223.602 260.977V255.201Z" fill="white"/>
<path d="M285.466 248.741C288.173 247.138 290.553 245.655 293.021 244.34C293.42 244.128 294.314 244.521 294.812 244.87C298.329 247.328 301.769 249.897 305.31 252.317C306.401 253.062 307.692 253.592 308.965 253.974C310.905 254.557 312.041 253.612 311.706 251.596C311.417 249.848 310.918 248.082 310.19 246.468C306.476 238.233 300.834 231.339 294.723 224.817C287.952 217.589 280.71 210.853 272.183 205.733C268.986 203.813 265.396 202.514 261.897 201.163C261.076 200.846 259.565 201.148 258.979 201.754C258.507 202.239 258.602 203.833 259.052 204.56C261.713 208.845 264.443 213.098 267.386 217.192C268.435 218.649 268.753 219.645 267.712 221.196C266.435 223.098 265.43 225.18 264.15 227.463C257.465 218.075 250.761 209.012 248.542 197.568C247.78 193.644 249.045 190.702 252.504 188.617C258.525 184.988 265.147 184.061 271.949 184.553C287.795 185.7 301.218 192.213 312.003 203.828C322.534 215.169 328.136 228.652 328.21 244.228C328.233 249.128 327.36 253.928 325.107 258.37C322.291 263.925 319.276 265.324 313.207 263.816C305.819 261.981 299.352 258.204 293.07 254.081C290.57 252.441 288.172 250.648 285.466 248.741Z" fill="white"/>
<path d="M271.656 244.655C273.502 250.309 272.444 254.292 268.493 256.782C264.924 259.031 260.398 258.557 257.34 255.613C254.248 252.635 253.622 248.016 255.81 244.337C258.288 240.168 261.993 239.234 268.588 241.2C271.053 237.065 273.537 232.893 276.027 228.725C277.011 227.076 278.091 225.478 278.981 223.78C279.924 221.979 281.388 221.669 283.018 222.352C286.404 223.771 288.869 226.252 290.308 229.628C291.002 231.255 290.674 232.649 288.96 233.709C283.19 237.275 277.49 240.952 271.656 244.655Z" fill="white"/>
<path d="M242.823 250.646C242.754 262.109 250.886 270.105 262.368 269.898C262.945 269.888 263.522 269.883 264.097 269.846C265.594 269.749 266.381 270.526 266.594 271.923C266.814 273.366 266.129 274.312 264.746 274.622C259.643 275.769 254.569 275.822 249.645 273.809C241.57 270.507 236.611 262.327 237.324 253.535C237.463 251.814 237.687 250.095 237.968 248.391C238.215 246.896 239.018 245.88 240.708 246.087C242.349 246.287 242.998 247.298 242.833 248.916C242.774 249.487 242.823 250.068 242.823 250.646Z" fill="white"/>
<defs>
<linearGradient id="paint0_linear_12167_415" x1="131.44" y1="380.565" x2="567.71" y2="-55.6646" gradientUnits="userSpaceOnUse">
<stop stop-color="#FF2626"/>
<stop offset="0.47939" stop-color="#890F0D"/>
<stop offset="1" stop-color="#890F0D"/>
</linearGradient>
</defs>
</svg>
