<svg width="297" height="223" viewBox="0 0 297 223" fill="none" xmlns="http://www.w3.org/2000/svg">
<path d="M101 134L204 69" stroke="white"/>
<path d="M139.941 80.6683L140 80.6755L140.168 80.7556C140.953 81.1489 144.222 85.0533 145.265 86.2501L145.676 86.7756L136.066 92.8377C137.6 94.3917 139.04 96.231 138.625 97.1892C138.538 97.416 138.253 97.7966 137.542 97.7686C136.773 97.7335 134.854 97.8539 132.811 98.0184C129.75 98.2359 126.271 98.4615 125.041 98.3103C124.689 98.2671 124.286 98.1581 124.146 97.8441C123.623 96.7706 127.525 86.3262 128.605 84.7966C128.744 84.6356 129.102 84.1452 129.636 84.1515C129.812 84.1732 129.981 84.2532 130.142 84.3918C130.767 85.1216 132.331 86.9168 133.117 87.7851C138.71 80.5171 139.589 80.6251 139.941 80.6683ZM143.873 86.4354C142.213 84.4503 140.377 82.4436 139.732 81.8893C138.825 82.4903 135.844 85.9237 133.442 89.0125L133.018 89.5541L132.548 89.0214C132.446 88.89 130.455 86.6863 129.412 85.4895C128.435 87.1504 125.465 94.8596 125.192 97.0821C126.422 97.2333 129.908 96.9493 132.669 96.7542C134.771 96.5969 136.631 96.4693 137.459 96.5116C137.238 95.8907 135.996 94.3727 134.667 93.0814L134.139 92.5415L143.873 86.4354Z" fill="white"/>
<path d="M147.217 133.335L147.16 133.32L147.004 133.217C146.282 132.718 143.588 128.397 142.722 127.067L142.387 126.49L152.747 121.823C151.444 120.071 150.274 118.049 150.818 117.158C150.936 116.945 151.271 116.608 151.971 116.735C152.728 116.876 154.645 117.024 156.691 117.145C159.752 117.355 163.229 117.616 164.426 117.937C164.769 118.029 165.153 118.192 165.248 118.523C165.616 119.659 160.3 129.459 159.017 130.823C158.857 130.964 158.435 131.399 157.906 131.319C157.735 131.273 157.579 131.17 157.439 131.01C156.922 130.201 155.622 128.206 154.965 127.236C148.415 133.656 147.559 133.427 147.217 133.335ZM144.125 127.077C145.493 129.274 147.032 131.516 147.594 132.155C148.576 131.686 152.005 128.7 154.814 125.976L155.308 125.498L155.7 126.091C155.783 126.236 157.448 128.695 158.314 130.025C159.513 128.516 163.527 121.295 164.106 119.132C162.908 118.811 159.417 118.608 156.656 118.417C154.552 118.28 152.693 118.148 151.879 117.991C152.012 118.637 153.03 120.312 154.166 121.776L154.614 122.384L144.125 127.077Z" fill="white"/>
<path d="M225.572 128.987C261.268 128.987 290.206 100.112 290.206 64.4936C290.206 28.8748 261.268 0 225.572 0C189.875 0 160.938 28.8748 160.938 64.4936C160.938 100.112 189.875 128.987 225.572 128.987Z" fill="#66BBBB"/>
<path d="M202.992 86.4226C202.992 86.4226 185.61 111.044 179.516 110.246C173.423 109.449 192.603 71.7695 192.503 71.7695C192.603 71.8692 203.991 79.5446 202.992 86.4226Z" fill="#D58693"/>
<path d="M215.881 34.091C215.881 34.091 208.488 29.9044 213.083 22.0296C219.577 11.0647 219.077 16.8462 218.178 18.9395C217.179 21.0328 220.576 13.3573 225.77 14.7529C230.965 16.0487 226.27 17.2449 225.671 17.843C225.071 18.4411 230.965 16.0487 232.564 19.6372C233.962 22.7273 230.466 19.9363 230.066 20.8334C229.666 21.8302 240.755 22.2289 239.357 29.5057C238.458 34.1907 234.462 46.2521 229.966 46.5511C225.471 46.8502 216.48 40.969 215.881 34.091Z" fill="#21253D"/>
<path d="M220.676 38.6763C220.676 38.6763 223.772 55.2234 221.175 57.9148C218.578 60.6061 206.79 57.8151 204.192 62.7991C201.595 67.7832 195.102 123.405 195.102 123.405L251.244 131.579C251.244 131.579 261.234 59.6093 258.637 58.0144C256.04 56.4195 234.062 60.1077 232.863 53.1301C232.264 49.8406 232.364 32.4961 232.364 32.4961L220.676 38.6763Z" fill="#D58693"/>
<path d="M232.264 48.1465C232.264 48.1465 227.569 53.928 222.074 49.542L222.674 52.3331C222.674 52.3331 223.573 55.0245 226.969 55.0245C230.366 55.0245 232.564 51.5356 232.564 51.5356L232.264 48.1465Z" fill="#AA4261"/>
<path d="M217.18 25.8178C217.18 25.8178 219.777 19.1391 228.168 21.6312C236.46 24.1232 244.252 33.5929 237.859 39.2747L219.577 39.9725L216.68 42.3648C216.68 42.3648 210.586 38.1782 212.085 32.1973C213.583 26.2165 217.18 25.8178 217.18 25.8178Z" fill="#21253D"/>
<path d="M215.781 29.6055C215.781 29.6055 215.281 51.8344 226.769 50.9372C234.661 50.3391 237.159 36.5832 234.362 30.6023C231.664 24.7211 219.976 24.2227 215.781 29.6055Z" fill="#D58693"/>
<path d="M228.135 39.4692C228.52 39.4384 228.801 39.0132 228.761 38.5193C228.721 38.0254 228.377 37.6499 227.992 37.6807C227.607 37.7114 227.327 38.1367 227.367 38.6306C227.406 39.1245 227.75 39.4999 228.135 39.4692Z" fill="#2E1F35"/>
<path d="M220.643 40.0649C221.028 40.0342 221.308 39.6089 221.269 39.115C221.229 38.6211 220.885 38.2456 220.5 38.2764C220.115 38.3071 219.835 38.7324 219.874 39.2263C219.914 39.7202 220.258 40.0956 220.643 40.0649Z" fill="#2E1F35"/>
<path d="M234.162 38.9749C234.162 38.9749 235.161 35.0873 236.959 36.5825C238.758 38.0777 237.259 42.7628 235.66 42.8624C234.062 42.9621 233.462 40.6694 234.162 38.9749Z" fill="#D58693"/>
<path d="M217.379 40.1716C217.379 40.1716 216.58 36.7825 214.981 38.5767C213.483 40.371 216.18 44.4579 217.779 44.3583C219.477 44.2586 218.278 41.6669 217.379 40.1716Z" fill="#D58693"/>
<path d="M221.474 34.6892C221.474 34.6892 219.875 34.0911 218.776 35.9851C218.077 37.0816 223.272 35.2873 221.474 34.6892Z" fill="#21253D"/>
<path d="M227.868 34.5888C227.868 34.5888 229.367 33.6917 230.765 35.3863C231.565 36.3831 226.169 35.486 227.868 34.5888Z" fill="#21253D"/>
<path d="M227.868 43.4603C227.868 43.4603 227.568 46.4508 225.97 46.3511C224.371 46.2514 223.672 44.1581 223.672 44.1581C223.672 44.1581 227.568 43.0616 227.868 43.4603Z" fill="white"/>
<path d="M223.173 42.6632C223.073 42.6632 223.073 42.6632 222.973 42.6632C222.873 42.6632 222.773 42.5636 222.673 42.4639C222.374 41.8658 223.273 39.3738 223.672 38.377L224.172 38.5763C223.573 40.0715 223.073 41.7661 223.073 42.1648C223.573 42.1648 224.472 41.8658 224.871 41.7661L225.071 42.2645C224.971 42.2645 223.872 42.6632 223.173 42.6632Z" fill="#2E1F35"/>
<path d="M216.781 43.262H216.281C216.481 41.1687 216.081 40.2716 215.681 39.9725C215.382 39.7732 215.182 39.7732 215.182 39.7732L215.082 39.2747C215.082 39.2747 215.582 39.1751 215.981 39.5738C216.681 40.1719 216.88 41.4677 216.781 43.262Z" fill="#2E1F35"/>
<path d="M235.062 41.4677C234.862 39.9725 234.962 38.7763 235.562 38.0786C235.961 37.5802 236.561 37.4805 236.561 37.4805V37.9789C236.561 37.9789 236.261 37.9789 235.961 38.3776C235.662 38.7763 235.362 39.5738 235.562 41.2683L235.062 41.4677Z" fill="#2E1F35"/>
<path d="M236.06 34.9872C236.06 34.9872 235.061 39.8716 233.962 39.6722C232.863 39.4729 234.561 32.0965 233.263 31.1993C231.964 30.3022 230.565 30.0032 231.164 26.7137C231.764 23.4242 237.459 32.3955 236.06 34.9872Z" fill="#21253D"/>
<path d="M217.278 26.416C217.278 26.416 218.377 30.0045 217.678 31.9982C216.978 33.9918 218.177 40.172 216.978 39.0755C215.779 38.0787 211.583 29.6058 217.278 26.416Z" fill="#21253D"/>
<path d="M218.578 26.3156C218.178 22.8268 221.375 19.338 221.475 19.2383L221.875 19.5373C221.875 19.5373 218.777 23.0262 219.077 26.3156H218.578Z" fill="#EBD3BF"/>
<path d="M222.874 25.1191C222.075 21.3312 227.17 19.7363 227.17 19.7363L227.37 20.2347C227.37 20.2347 222.674 21.73 223.374 25.1191H222.874Z" fill="#EBD3BF"/>
<path d="M215.181 28.2105C212.783 24.1236 216.08 20.6348 216.18 20.6348L216.579 20.9338C216.479 21.0335 213.482 24.2233 215.68 27.9115L215.181 28.2105Z" fill="#EBD3BF"/>
<path d="M227.07 26.0176L226.57 25.9179C226.77 24.8214 227.27 24.024 227.969 23.5256C229.468 22.4291 231.566 22.9275 231.666 22.9275L231.566 23.4259C231.566 23.4259 229.568 23.0272 228.169 24.024C227.569 24.4227 227.17 25.1205 227.07 26.0176Z" fill="#EBD3BF"/>
<path d="M237.659 28.7084C237.659 28.7084 236.86 27.7116 233.363 27.3129L233.463 26.8145C237.26 27.2132 238.059 28.21 238.159 28.3097L237.659 28.7084Z" fill="#EBD3BF"/>
<path d="M218.678 59.1113C218.678 59.1113 217.18 64.9925 224.972 66.7868C235.861 69.2788 233.263 56.0212 239.557 56.719C245.851 57.4167 255.541 53.8282 260.935 58.3139C266.33 62.6998 274.322 80.4431 271.325 82.7357C268.328 84.9287 262.633 80.9415 259.936 84.9287C257.239 88.916 267.029 123.107 262.234 128.689C257.439 134.171 204.193 129.785 193.504 128.988C191.006 128.788 200.297 92.7038 198.699 92.5045C197.1 92.3051 189.808 82.5364 188.709 79.5459C187.61 76.5555 196.9 66.089 201.296 62.6002C205.592 59.0116 211.286 59.7094 218.678 59.1113Z" fill="#21253D"/>
<path d="M237.261 57.7147C237.261 57.7147 240.258 61.8017 244.553 62.6988C248.849 63.5959 260.737 59.21 260.337 57.6151C259.938 56.0202 253.544 55.0233 249.149 55.9205C244.753 56.8176 236.262 54.6246 237.261 57.7147Z" fill="#34465C"/>
<path d="M217.878 59.5097C217.878 59.5097 215.081 62.8988 211.385 64.2943C207.589 65.6899 200.996 61.5033 202.095 61.2042C212.784 59.0113 221.475 57.7154 217.878 59.5097Z" fill="#34465C"/>
<path d="M237.26 56.5193C237.26 56.5193 234.862 56.5193 233.663 54.2266C232.364 51.934 232.564 51.4355 232.564 51.4355C232.564 51.4355 230.066 53.8279 231.265 56.619C231.665 57.5161 232.464 58.8119 234.262 58.8119C236.061 58.8119 236.96 57.6158 237.26 56.5193Z" fill="#DEA3A3"/>
<path d="M188.908 54.8245C188.908 54.8245 200.397 50.8372 201.595 50.4385C202.794 50.0398 210.586 74.1626 210.586 74.1626L196.001 79.1466L188.908 54.8245Z" fill="white"/>
<path d="M196.502 74.2627C196.502 74.2627 202.995 67.9828 203.694 65.1917C204.394 62.4007 202.495 66.1885 199.898 67.285C197.401 68.4812 202.096 62.2013 201.996 59.8089C201.896 57.3169 197.201 65.6901 197.201 65.6901C197.201 65.6901 200.098 59.6096 199.898 58.1144C199.698 56.6192 194.903 64.3943 194.903 64.3943C194.903 64.3943 199.299 55.722 198 56.8185C194.304 59.9086 190.408 71.1726 186.212 72.9668C182.016 74.7611 187.111 79.5458 188.61 79.4461C190.108 79.3464 194.104 76.8544 196.502 74.2627Z" fill="#D58693"/>
<path d="M271.923 90.5112C271.923 90.5112 276.019 99.8812 258.836 99.9809C241.654 100.081 227.868 74.0638 222.573 70.1763C217.279 66.2887 213.682 71.5718 212.484 66.4881C211.285 61.4043 214.382 61.6037 212.683 59.1117C211.085 56.6197 203.693 55.8222 205.591 54.626C207.489 53.4299 220.675 58.6133 224.471 59.012C228.367 59.4107 273.322 81.2409 271.923 90.5112Z" fill="#D58693"/>
<path d="M188.909 70.5742C188.909 70.5742 167.331 86.5232 167.031 95.4945C166.731 104.466 175.522 113.736 179.618 110.247C193.004 98.9833 189.108 82.5359 196.501 74.2624C197.5 73.1659 188.909 70.5742 188.909 70.5742Z" fill="#D58693"/>
<path d="M270.524 74.461C270.524 74.461 277.317 93.201 272.922 98.0854C266.728 104.963 249.945 97.6867 249.945 97.6867C249.945 97.6867 256.239 78.0495 257.737 78.1492C259.136 78.1492 271.124 72.1683 270.524 74.461Z" fill="#D58693"/>
<path d="M227.27 59.9082C227.27 59.9082 232.065 64.8923 234.063 67.9824C236.061 71.0725 258.438 83.732 263.133 81.0406C263.133 81.0406 261.635 77.6514 250.846 71.7702C240.057 65.9887 227.27 59.9082 227.27 59.9082Z" fill="#DEA3A3"/>
<path d="M191.805 84.7285C191.805 84.7285 191.406 101.276 193.204 99.0826C195.003 96.8896 199.399 92.8027 198.599 92.4039C197.9 92.0052 192.505 86.0244 191.805 84.7285Z" fill="#AA4261"/>
<path d="M195.002 76.3555C195.002 76.3555 188.609 93.6003 185.912 97.0891C183.214 100.578 180.018 101.076 180.018 101.076C180.018 101.076 191.006 76.9536 195.002 76.3555Z" fill="#DEA3A3"/>
<path d="M64.6342 216.724C100.331 216.724 129.268 187.849 129.268 152.23C129.268 116.611 100.331 87.7363 64.6342 87.7363C28.9377 87.7363 0 116.611 0 152.23C0 187.849 28.9377 216.724 64.6342 216.724Z" fill="#D06757"/>
<path d="M30.7694 154.622C30.7694 154.622 14.2862 157.912 10.4901 185.324C9.79078 190.707 30.3698 195.89 33.2669 195.99C36.1639 196.09 43.956 180.739 43.3566 177.948C42.7572 175.256 41.3586 145.85 30.7694 154.622Z" fill="#EBD3BF"/>
<path d="M59.0405 129.304C59.0405 129.304 58.8408 146.05 61.9376 148.343C65.0344 150.635 82.217 150.037 85.7134 154.523C89.2098 159.009 94.6043 212.537 94.6043 212.537L36.4635 222.206C36.4635 222.206 22.4778 163.096 35.6644 154.423C38.2617 152.729 49.8499 152.729 49.75 145.651C49.75 142.262 46.6532 125.217 46.6532 125.217L59.0405 129.304Z" fill="#D58693"/>
<path d="M62.8366 124.02C62.8366 124.02 69.4299 118.638 63.436 111.66C55.1444 101.991 56.543 107.573 57.9416 109.467C59.2403 111.361 54.645 104.383 49.7499 106.676C44.8549 108.869 49.65 109.268 50.3493 109.766C50.9487 110.264 44.8549 108.969 43.9558 112.756C43.1567 116.046 46.0537 112.657 46.5532 113.554C47.0527 114.451 36.2637 116.843 38.9609 123.622C40.7591 128.107 46.6531 139.272 51.1485 138.773C55.6439 138.175 63.5359 130.898 62.8366 124.02Z" fill="#852B49"/>
<path d="M49.25 140.666C49.25 140.666 54.9442 145.551 59.5395 140.268L59.4396 143.059C59.4396 143.059 59.04 145.85 55.7434 146.448C52.4467 146.946 49.6496 143.956 49.6496 143.956L49.25 140.666Z" fill="#AA4261"/>
<path d="M60.2371 116.047C60.2371 116.047 56.4409 109.867 48.7488 113.854C40.9567 117.841 35.0627 128.407 42.2554 132.993L60.337 130.501L63.6336 132.394C63.6336 132.394 67.5297 126.414 65.0322 120.732C62.5347 115.05 60.2371 116.047 60.2371 116.047Z" fill="#852B49"/>
<path d="M62.1356 119.534C62.1356 119.534 66.4312 141.365 55.0428 142.461C47.1509 143.159 42.3558 130.101 44.054 123.821C45.7523 117.541 57.1407 115.049 62.1356 119.534Z" fill="#D58693"/>
<path d="M51.7295 131.394C52.114 131.358 52.3877 130.928 52.3407 130.435C52.2938 129.942 51.944 129.571 51.5595 129.608C51.175 129.644 50.9013 130.074 50.9483 130.567C50.9952 131.06 51.345 131.43 51.7295 131.394Z" fill="#2E1F35"/>
<path d="M59.3233 130.689C59.7078 130.653 59.9814 130.223 59.9345 129.73C59.8875 129.237 59.5378 128.866 59.1533 128.903C58.7687 128.939 58.4951 129.369 58.542 129.862C58.589 130.355 58.9387 130.725 59.3233 130.689Z" fill="#2E1F35"/>
<path d="M45.7538 131.996C45.7538 131.996 44.1552 128.307 42.5566 130.102C41.0579 131.896 43.3559 136.282 44.9545 136.082C46.553 135.983 46.653 133.491 45.7538 131.996Z" fill="#D58693"/>
<path d="M62.435 130.3C62.435 130.3 62.6348 126.811 64.5331 128.306C66.3315 129.801 64.4332 134.287 62.8347 134.486C61.1362 134.586 61.8356 131.895 62.435 130.3Z" fill="#D58693"/>
<path d="M57.5399 125.517C57.5399 125.517 59.0385 124.619 60.4373 126.314C61.2366 127.311 55.8414 126.414 57.5399 125.517Z" fill="#852B49"/>
<path d="M51.2472 126.513C51.2472 126.513 49.6486 125.915 48.5496 127.809C47.8502 128.906 53.0456 127.112 51.2472 126.513Z" fill="#852B49"/>
<path d="M56.7409 133.79C56.1414 133.79 55.3421 133.69 55.2422 133.591L55.3421 133.092C55.7417 133.192 56.7409 133.292 57.1405 133.192C57.1405 132.793 56.2413 131.198 55.442 129.803L55.9416 129.604C56.541 130.6 57.9398 132.893 57.6401 133.491C57.6401 133.591 57.5401 133.69 57.4402 133.69C57.2404 133.69 57.0406 133.79 56.7409 133.79Z" fill="#2E1F35"/>
<path d="M63.6351 133.191C63.1355 131.396 63.2354 130.1 63.735 129.403C64.1346 128.904 64.5343 128.904 64.5343 128.904V129.403V129.104V129.403C64.5343 129.403 64.2345 129.403 64.0347 129.702C63.735 130.1 63.5352 130.998 64.0347 133.091L63.6351 133.191Z" fill="#2E1F35"/>
<path d="M44.8547 134.587C44.7548 132.793 44.3552 132.095 43.9555 131.696C43.5559 131.397 43.2562 131.397 43.2562 131.397L43.1562 130.899C43.1562 130.899 43.6558 130.799 44.2553 131.297C44.9546 131.896 45.2544 132.992 45.3543 134.487L44.8547 134.587Z" fill="#2E1F35"/>
<path d="M43.1574 128.307C43.1574 128.307 44.9558 132.992 46.0548 132.594C47.1538 132.195 44.1565 125.317 45.2555 124.121C46.3546 122.925 47.7533 122.526 46.5544 119.336C45.2555 116.047 41.359 126.114 43.1574 128.307Z" fill="#852B49"/>
<path d="M60.1366 116.645C60.1366 116.645 59.6371 120.333 60.6362 122.227C61.6353 124.021 61.5354 130.301 62.6344 129.105C63.7334 127.908 66.3311 118.738 60.1366 116.645Z" fill="#852B49"/>
<path d="M58.4395 116.843C58.2397 113.553 54.543 110.762 54.543 110.662L54.8427 110.264C55.0425 110.363 58.7392 113.254 58.939 116.743L58.4395 116.843Z" fill="#2E1F35"/>
<path d="M54.4454 116.345H53.9458C54.0457 112.956 49.25 112.258 49.25 112.258L49.3499 111.76C49.3499 111.76 54.5453 112.458 54.4454 116.345Z" fill="#2E1F35"/>
<path d="M62.5352 118.04L62.0356 117.841C63.5343 113.754 60.0374 111.262 59.9375 111.162L60.2372 110.764C60.3371 110.764 64.1338 113.654 62.5352 118.04Z" fill="#2E1F35"/>
<path d="M50.5489 117.94C50.2491 117.043 49.7496 116.445 48.9503 116.046C47.4516 115.348 45.5533 116.046 45.5533 116.046L45.3535 115.548C45.4534 115.548 47.4516 114.75 49.1501 115.548C50.0493 115.947 50.6488 116.644 50.9485 117.641L50.5489 117.94Z" fill="#2E1F35"/>
<path d="M40.5578 122.426L40.1582 122.226C40.2581 122.127 40.8576 120.93 44.5543 119.934L44.6542 120.432C41.1573 121.329 40.5578 122.426 40.5578 122.426Z" fill="#2E1F35"/>
<path d="M43.4562 151.234C43.4562 151.234 47.1524 156.816 57.7416 158.511C68.3308 160.305 66.8324 148.244 71.128 148.941C75.3237 149.539 78.021 149.041 83.915 152.929C89.809 156.916 96.9018 208.551 94.0047 211.242C91.1077 213.933 45.9536 211.441 38.9608 218.319C31.9679 225.197 27.0729 191.206 26.7732 173.263C26.4735 155.321 35.1646 152.43 43.4562 151.234Z" fill="#EBD3BF"/>
<path d="M59.3393 146.051C59.3393 146.051 58.8398 149.54 61.4372 151.732C64.0345 153.925 69.0295 149.639 69.0295 149.639C69.0295 149.639 64.1344 149.739 63.2354 148.044C62.4362 146.449 59.2394 144.256 59.3393 146.051Z" fill="#DEA3A3"/>
<path d="M45.2537 124.021C45.2537 124.021 45.4535 134.288 48.6502 136.082C51.847 137.877 51.2476 134.388 54.2445 133.889C57.2415 133.391 58.6401 134.188 60.1385 134.786C61.637 135.384 62.2364 129.304 62.0366 127.51C61.8368 125.715 62.9357 126.712 62.9357 126.712C62.9357 126.712 62.3363 134.388 63.0356 135.684C63.7349 136.979 66.6319 138.574 66.0325 140.767C65.4331 142.96 60.638 146.449 61.2374 147.645C61.8368 148.941 55.8429 145.353 51.3475 145.054C46.8521 144.755 44.954 138.973 45.2537 136.979C45.5534 134.986 44.6543 130.4 44.2547 129.902C43.7552 129.503 43.8551 123.921 45.2537 124.021Z" fill="#852B49"/>
<path d="M52.7461 135.284C52.7461 135.284 53.5454 138.174 55.144 137.776C56.7425 137.377 57.0423 135.184 57.0423 135.184C57.0423 135.184 52.9459 134.885 52.7461 135.284Z" fill="white"/>
<path d="M65.234 123.721C63.3357 122.923 62.2366 121.129 62.1367 121.129L62.5364 120.83C62.5364 120.83 63.6354 122.525 65.4338 123.322L65.234 123.721Z" fill="#2E1F35"/>
<path d="M64.9336 126.312C62.9354 125.914 62.3359 124.119 62.3359 124.02L62.8355 123.82C62.8355 123.92 63.435 125.415 65.1334 125.814L64.9336 126.312Z" fill="#2E1F35"/>
<path d="M39.8577 126.312L39.7578 125.814C39.7578 125.814 42.4554 125.515 43.3546 124.02L43.7543 124.219C42.8551 126.013 40.0575 126.312 39.8577 126.312Z" fill="#2E1F35"/>
<path d="M41.2581 129.404L41.1582 128.905C42.1573 128.706 43.9557 128.108 44.0556 127.41L44.5552 127.51C44.3554 128.806 41.5578 129.404 41.2581 129.404Z" fill="#2E1F35"/>
<path d="M55.7427 144.356C53.3448 143.259 52.3457 141.864 52.3457 141.764L52.7453 141.465C52.7453 141.465 53.6445 142.761 55.9425 143.857L55.7427 144.356Z" fill="#2E1F35"/>
<path d="M59.1404 146.049C58.9405 143.756 55.3438 140.766 55.3438 140.766L55.6435 140.367C55.8433 140.467 59.54 143.557 59.6399 146.049H59.1404Z" fill="#2E1F35"/>
<path d="M61.5379 143.857L61.0383 143.758C61.5379 141.365 59.3398 139.073 59.3398 139.073L59.7395 138.674C59.7395 138.873 62.0374 141.166 61.5379 143.857Z" fill="#2E1F35"/>
<path d="M85.2129 112.458C85.2129 112.458 96.4015 107.673 97.5004 107.275C98.6992 106.776 107.39 133.192 107.39 133.192L94.903 138.475L85.2129 112.458Z" fill="#21253D"/>
<path d="M113.784 146.549C113.784 146.549 130.766 153.826 128.569 158.112C126.371 162.398 95.802 173.463 92.4055 171.369C89.009 169.376 85.1129 150.735 85.9121 149.041C86.6114 147.247 111.786 146.349 113.784 146.549Z" fill="#D58693"/>
<path d="M77.4217 149.34C77.4217 149.34 100.298 142.761 103.495 144.855C107.991 147.845 112.886 169.376 110.288 170.473C107.691 171.569 80.9181 178.646 80.5185 175.855C80.019 173.064 64.335 144.954 77.4217 149.34Z" fill="#EBD3BF"/>
<path d="M41.1578 151.631C41.1578 151.631 45.3535 163.992 55.8428 168.278C66.3321 172.465 72.0263 167.58 72.1262 161.998C72.4259 150.834 69.5289 148.84 72.2261 147.943C74.9234 146.946 81.3169 146.747 82.5156 148.043C89.3087 155.918 97.9999 203.565 100.298 211.34C100.797 213.035 40.1588 224.598 34.3647 222.405C28.5706 220.212 28.7704 196.189 28.7704 196.189C39.8591 178.146 28.3708 158.808 30.7683 154.721C33.1659 150.635 35.064 152.528 41.1578 151.631Z" fill="#6D6780"/>
<path d="M118.079 163.694C118.079 163.694 106.691 133.789 103.694 127.709C100.697 121.529 91.7059 122.127 95.7018 120.831C99.6978 119.535 102.395 122.326 102.395 122.326C102.395 122.326 93.7038 119.336 96.1014 118.438C98.5989 117.541 103.694 119.136 103.694 119.136C103.694 119.136 95.502 115.946 97.4001 115.548C99.2982 115.149 102.395 112.458 108.389 117.84C114.383 123.223 134.063 147.147 132.864 154.523C132.065 159.607 118.079 163.694 118.079 163.694Z" fill="#D58693"/>
<path d="M110.986 120.332C110.986 120.332 111.686 124.917 113.883 128.307C116.081 131.696 126.87 151.233 132.864 152.33C132.764 152.33 134.163 145.85 110.986 120.332Z" fill="#DEA3A3"/>
<path d="M91.6064 173.662C91.6064 173.662 88.7093 180.64 87.2108 188.614C85.7124 196.589 92.2057 209.049 94.0039 211.441C95.902 213.734 100.397 211.441 100.397 211.441C100.397 211.441 94.5034 180.739 91.6064 173.662Z" fill="#85758E"/>
<path d="M100.897 144.455C100.897 144.455 99.0992 149.439 94.7037 150.835C90.3081 152.23 83.7148 147.745 83.7148 147.745C83.7148 147.745 93.2052 143.957 100.897 144.455Z" fill="white"/>
<path d="M82.5153 147.945C82.5153 147.945 82.7151 147.745 78.3196 149.739C73.9241 151.732 70.6274 149.539 70.9271 148.941C71.3267 148.443 70.6274 148.044 73.9241 147.346C77.3206 146.649 82.4154 146.848 82.5153 147.945Z" fill="#85758E"/>
<path d="M40.759 151.731C40.759 151.731 38.761 154.622 35.6642 156.017C32.4674 157.513 28.8711 155.32 28.8711 155.32C28.8711 155.32 31.1688 152.13 34.3655 152.03C37.5622 151.93 39.8599 151.432 40.759 151.731Z" fill="#85758E"/>
<path d="M33.9655 137.876C33.9655 137.876 35.6638 128.805 34.7647 129.303C33.8656 129.802 32.3671 134.786 31.2682 133.589C30.1693 132.393 28.2713 126.412 26.4731 125.316C24.7748 124.319 27.7718 132.792 27.7718 132.792C27.7718 132.792 24.1755 126.014 22.9767 126.512C21.8778 127.01 24.7748 132.991 25.4741 133.789C26.1734 134.586 21.0786 127.808 20.3793 129.403C19.68 130.998 26.0735 135.284 25.574 140.069C24.9746 144.953 -4.69516 178.546 1.59844 189.112C5.39457 195.491 23.2764 194.195 26.1734 190.906C29.0705 187.617 34.7647 142.959 33.9655 137.876Z" fill="#D58693"/>
<path d="M24.2752 142.861C24.2752 142.861 24.7747 144.854 22.7767 152.928C20.7788 161.003 2.89698 176.453 3.99586 174.559C8.29149 167.382 24.2752 141.665 24.2752 142.861Z" fill="#DEA3A3"/>
<path d="M72.0688 108.168C71.5693 108.168 71.1697 107.969 70.9699 107.57C70.6702 107.171 70.0708 105.975 74.9658 97.6021C71.4694 97.4027 63.4775 96.6053 59.6814 93.1164C54.7864 88.5311 56.1849 77.0678 56.1849 76.5694C57.3837 70.2895 63.6773 67 74.2665 67C84.8557 67 96.8435 70.2895 99.8405 72.0837C101.739 73.1802 102.837 75.7719 103.137 79.3604C103.637 85.3413 101.838 94.2129 98.5418 97.1037C96.5438 98.8979 93.2472 99.6954 88.7518 99.6954C86.3542 99.6954 84.2564 99.3963 83.2574 99.2967C79.7609 102.785 73.8669 108.168 72.0688 108.168ZM74.2665 68.8939C67.5733 68.8939 59.3817 70.2895 58.1829 76.7687C58.1829 76.7687 56.8842 87.634 61.0799 91.5215C65.2757 95.5088 76.5642 95.5088 76.764 95.5088H78.5621L77.6631 97.004C75.8649 99.9944 73.9668 103.583 73.2675 105.477C75.2655 104.081 79.1615 100.692 82.4582 97.5024L82.8578 97.1037L83.3573 97.2034C83.3573 97.2034 85.9546 97.6021 88.9516 97.6021C92.9475 97.6021 95.8446 96.9043 97.4429 95.5088C99.9404 93.2161 101.938 85.2416 101.339 79.3604C101.039 76.37 100.24 74.3764 98.9414 73.579C96.0443 72.0837 84.3563 68.8939 74.2665 68.8939Z" fill="white"/>
<path d="M63.97 75.869L63.8262 77.8574L95.6109 80.1458L95.7547 78.1573L63.97 75.869Z" fill="white"/>
<path d="M63.9219 82.5187L63.7383 84.5039L85.4246 86.5006L85.6082 84.5154L63.9219 82.5187Z" fill="white"/>
<path d="M265.034 43.1624C264.534 43.1624 264.135 42.963 263.935 42.5643C263.635 42.1656 263.036 40.9694 267.931 32.5962C264.434 32.3969 256.442 31.5994 252.646 28.1106C247.751 23.5252 249.15 12.0619 249.15 11.5635C250.349 5.28361 256.642 1.99414 267.231 1.99414C277.821 1.99414 289.808 5.28361 292.805 7.07787C294.703 8.17436 295.802 10.7661 296.102 14.3546C296.601 20.3354 294.803 29.2071 291.507 32.0978C289.509 33.8921 286.212 34.6895 281.717 34.6895C279.319 34.6895 277.221 34.3905 276.222 34.2908C272.726 37.7796 266.832 43.1624 265.034 43.1624ZM267.231 3.88808C260.538 3.88808 252.347 5.28361 251.148 11.7629C251.148 11.7629 249.849 22.6281 254.045 26.5157C258.34 30.5029 269.529 30.5029 269.729 30.5029H271.527L270.628 31.9981C268.83 34.9886 266.932 38.5771 266.232 40.471C268.23 39.0755 272.126 35.6863 275.423 32.4965L275.823 32.0978L276.322 32.1975C276.322 32.1975 278.92 32.5962 281.916 32.5962C285.912 32.5962 288.809 31.8984 290.408 30.5029C292.905 28.2103 294.903 20.2358 294.304 14.3546C294.004 11.3642 293.205 9.37054 291.906 8.57309C289.009 7.07787 277.321 3.88808 267.231 3.88808Z" fill="white"/>
<path d="M256.839 10.9139L256.695 12.9023L288.48 15.1912L288.624 13.2028L256.839 10.9139Z" fill="white"/>
<path d="M256.897 17.464L256.713 19.4492L278.399 21.4465L278.583 19.4612L256.897 17.464Z" fill="white"/>
</svg>
