<svg width="102" height="71" viewBox="0 0 102 71" fill="none" xmlns="http://www.w3.org/2000/svg">
<g clip-path="url(#clip0_5_312)">
<path opacity="0.4" fill-rule="evenodd" clip-rule="evenodd" d="M64.9563 1.93392L64.0642 5.08107L63.5447 6.42232C55.1723 4.07581 46.3075 4.13196 37.964 6.58575C37.3768 6.75846 36.7938 6.94256 36.2153 7.13785L34.2139 2.85256C35.0137 2.57336 35.8215 2.31367 36.6368 2.07389C45.8744 -0.642875 55.6922 -0.691399 64.9563 1.93392ZM27.3588 5.8251C21.8544 8.70769 16.8973 12.5845 12.7514 17.2873C9.38064 21.1108 6.61896 25.3977 4.53821 29.996L9.15938 31.2092C11.006 27.3089 13.3977 23.6664 16.2798 20.3971C19.9959 16.1818 24.43 12.6976 29.3513 10.0912L27.3588 5.8251ZM0.653896 42.8902C0.974055 40.9095 1.40962 38.9562 1.95621 37.0395L6.50666 38.2341C5.99768 40.0047 5.59312 41.8098 5.29718 43.6406C3.9024 52.2691 4.97721 61.1162 8.39746 69.1599L4.06889 71C0.301444 62.1397 -0.882468 52.3946 0.653896 42.8902Z" fill="#8B1D1D"/>
<path fill-rule="evenodd" clip-rule="evenodd" d="M92.5508 30.9275C87.9002 21.4623 80.146 13.8398 70.541 9.37133L72.222 5.02236L72.242 4.97852C83.1458 9.97248 91.9113 18.6452 97.0426 29.4314L92.5508 30.9275ZM95.2968 37.8829C98.3117 47.7916 97.9356 58.4723 94.1565 68.1998L98.5302 69.9059C102.707 59.1541 103.11 47.3452 99.7519 36.399L95.2968 37.8829Z" fill="#8B1D1D"/>
</g>
<defs>
<clipPath id="clip0_5_312">
<rect width="102" height="71" fill="white"/>
</clipPath>
</defs>
</svg>
