<svg width="219" height="65" viewBox="0 0 219 65" fill="none" xmlns="http://www.w3.org/2000/svg">
<circle cx="43" cy="5" r="5" fill="#FABD68"/>
<circle cx="3" cy="33" r="3" fill="#65F3A7"/>
<circle cx="216" cy="31" r="3" fill="#FCAABA"/>
<path d="M176 0L179.104 2.79629L183.608 4.1459L181.022 7.22371L180.702 10.8541L176 9.96L171.298 10.8541L170.978 7.22371L168.392 4.1459L172.896 2.79629L176 0Z" fill="#FFD957"/>
<path d="M188.5 58L189.47 58.9321L190.878 59.382L190.069 60.4079L189.969 61.618L188.5 61.32L187.031 61.618L186.931 60.4079L186.122 59.382L187.53 58.9321L188.5 58Z" fill="#DAE7F9"/>
<path d="M31.5 58L33.2457 59.6312L35.7798 60.4184L34.3246 62.2138L34.145 64.3316L31.5 63.81L28.855 64.3316L28.6754 62.2138L27.2202 60.4184L29.7543 59.6312L31.5 58Z" fill="#82B7FC"/>
</svg>
